<?xml version="1.0" encoding="UTF-8"?>
<svg version="1.1" xmlns="http://www.w3.org/2000/svg" width="742" height="734">
<path d="M0 0 C244.86 0 489.72 0 742 0 C742 242.22 742 484.44 742 734 C497.14 734 252.28 734 0 734 C0 491.78 0 249.56 0 0 Z " fill="#FDFDFD" transform="translate(0,0)"/>
<path d="M0 0 C5.94 0 11.88 0 18 0 C18.495 7.425 18.495 7.425 19 15 C21.041875 16.010625 23.08375 17.02125 25.1875 18.0625 C26.33605469 18.63097656 27.48460937 19.19945312 28.66796875 19.78515625 C32.20629284 21.07521345 33.55426734 21.42423617 37 20 C39.31122358 17.957168 39.31122358 17.957168 41.3125 15.4375 C42.00988281 14.61121094 42.70726562 13.78492188 43.42578125 12.93359375 C43.94527344 12.29550781 44.46476562 11.65742188 45 11 C48.90285767 12.58667578 51.33520982 15.13350481 54.25 18.125 C55.14203125 19.03507812 56.0340625 19.94515625 56.953125 20.8828125 C57.62859375 21.58148438 58.3040625 22.28015625 59 23 C57.60419222 26.25216128 55.99191437 28.03526953 53.3125 30.3125 C50.3353072 33.18766464 50.3353072 33.18766464 49.8125 37.3125 C51.319554 41.99229928 53.07769838 46.47328972 55 51 C60.28 51.33 65.56 51.66 71 52 C71 58.27 71 64.54 71 71 C63.08 71.495 63.08 71.495 55 72 C53.7625 74.8153125 53.7625 74.8153125 52.5 77.6875 C52.0359375 78.74324219 51.571875 79.79898438 51.09375 80.88671875 C50.00655864 83.98133131 49.41520181 85.78360997 50 89 C51.94494486 91.54927497 51.94494486 91.54927497 54.5 93.8125 C55.75296875 94.99779297 55.75296875 94.99779297 57.03125 96.20703125 C57.6809375 96.79871094 58.330625 97.39039063 59 98 C55.19524578 102.56030824 51.25030379 106.85089392 47 111 C43.75034076 109.60222081 41.92436772 107.97350537 39.625 105.3125 C36.95734158 102.49854356 36.95734158 102.49854356 33.25 101.75 C28.38775219 103.62009531 23.70561349 105.76196431 19 108 C18.67 112.95 18.34 117.9 18 123 C11.73 123 5.46 123 -1 123 C-1.33 117.72 -1.66 112.44 -2 107 C-3.876875 106.154375 -5.75375 105.30875 -7.6875 104.4375 C-9.27111328 103.72400391 -9.27111328 103.72400391 -10.88671875 102.99609375 C-14.27352033 101.91248722 -15.70453863 101.74252132 -19 103 C-21.29765064 104.81654128 -21.29765064 104.81654128 -23.3125 107.0625 C-24.00988281 107.79597656 -24.70726562 108.52945313 -25.42578125 109.28515625 C-25.94527344 109.85105469 -26.46476562 110.41695313 -27 111 C-30.90285767 109.41332422 -33.33520982 106.86649519 -36.25 103.875 C-37.14203125 102.96492188 -38.0340625 102.05484375 -38.953125 101.1171875 C-39.96632813 100.06917969 -39.96632813 100.06917969 -41 99 C-40.06409496 97.8944811 -39.12620142 96.79064547 -38.1875 95.6875 C-37.40439453 94.76517578 -37.40439453 94.76517578 -36.60546875 93.82421875 C-35 92 -35 92 -33.296875 90.4609375 C-31.65443731 88.94372334 -31.65443731 88.94372334 -32.0625 85.9375 C-32.98562426 81.04913742 -35.06457313 76.55761812 -37 72 C-42.28 71.67 -47.56 71.34 -53 71 C-53 64.73 -53 58.46 -53 52 C-45.08 51.505 -45.08 51.505 -37 51 C-36.175 49.123125 -35.35 47.24625 -34.5 45.3125 C-34.0359375 44.25675781 -33.571875 43.20101562 -33.09375 42.11328125 C-32.00655864 39.01866869 -31.41520181 37.21639003 -32 34 C-33.94494486 31.45072503 -33.94494486 31.45072503 -36.5 29.1875 C-37.3353125 28.39730469 -38.170625 27.60710937 -39.03125 26.79296875 C-40.00578125 25.90544922 -40.00578125 25.90544922 -41 25 C-39.41332422 21.09714233 -36.86649519 18.66479018 -33.875 15.75 C-32.96492188 14.85796875 -32.05484375 13.9659375 -31.1171875 13.046875 C-30.41851562 12.37140625 -29.71984375 11.6959375 -29 11 C-25.24980832 12.25006389 -24.42481772 13.93331877 -22 17 C-19.62157423 19.40406384 -19.62157423 19.40406384 -17 21 C-13.38976894 20.51277855 -10.08176528 18.84987876 -6.75 17.4375 C-4.8525 16.633125 -2.955 15.82875 -1 15 C-0.67 10.05 -0.34 5.1 0 0 Z " fill="#F4F4F4" transform="translate(360,215)"/>
<path d="M0 0 C5.94 0 11.88 0 18 0 C18.495 7.425 18.495 7.425 19 15 C21.041875 16.010625 23.08375 17.02125 25.1875 18.0625 C26.33605469 18.63097656 27.48460937 19.19945312 28.66796875 19.78515625 C32.20629284 21.07521345 33.55426734 21.42423617 37 20 C39.31122358 17.957168 39.31122358 17.957168 41.3125 15.4375 C42.00988281 14.61121094 42.70726562 13.78492188 43.42578125 12.93359375 C43.94527344 12.29550781 44.46476562 11.65742188 45 11 C48.90285767 12.58667578 51.33520982 15.13350481 54.25 18.125 C55.14203125 19.03507812 56.0340625 19.94515625 56.953125 20.8828125 C57.62859375 21.58148438 58.3040625 22.28015625 59 23 C57.60419222 26.25216128 55.99191437 28.03526953 53.3125 30.3125 C50.3353072 33.18766464 50.3353072 33.18766464 49.8125 37.3125 C51.319554 41.99229928 53.07769838 46.47328972 55 51 C60.28 51.33 65.56 51.66 71 52 C71 58.27 71 64.54 71 71 C63.08 71.495 63.08 71.495 55 72 C53.7625 74.8153125 53.7625 74.8153125 52.5 77.6875 C52.0359375 78.74324219 51.571875 79.79898438 51.09375 80.88671875 C50.00655864 83.98133131 49.41520181 85.78360997 50 89 C51.94494486 91.54927497 51.94494486 91.54927497 54.5 93.8125 C55.75296875 94.99779297 55.75296875 94.99779297 57.03125 96.20703125 C57.6809375 96.79871094 58.330625 97.39039063 59 98 C55.19524578 102.56030824 51.25030379 106.85089392 47 111 C43.75034076 109.60222081 41.92436772 107.97350537 39.625 105.3125 C36.95734158 102.49854356 36.95734158 102.49854356 33.25 101.75 C28.38775219 103.62009531 23.70561349 105.76196431 19 108 C18.67 112.95 18.34 117.9 18 123 C11.73 123 5.46 123 -1 123 C-1.33 117.72 -1.66 112.44 -2 107 C-3.876875 106.154375 -5.75375 105.30875 -7.6875 104.4375 C-9.27111328 103.72400391 -9.27111328 103.72400391 -10.88671875 102.99609375 C-14.27352033 101.91248722 -15.70453863 101.74252132 -19 103 C-21.29765064 104.81654128 -21.29765064 104.81654128 -23.3125 107.0625 C-24.00988281 107.79597656 -24.70726562 108.52945313 -25.42578125 109.28515625 C-25.94527344 109.85105469 -26.46476562 110.41695313 -27 111 C-30.90285767 109.41332422 -33.33520982 106.86649519 -36.25 103.875 C-37.14203125 102.96492188 -38.0340625 102.05484375 -38.953125 101.1171875 C-39.96632813 100.06917969 -39.96632813 100.06917969 -41 99 C-40.06409496 97.8944811 -39.12620142 96.79064547 -38.1875 95.6875 C-37.40439453 94.76517578 -37.40439453 94.76517578 -36.60546875 93.82421875 C-35 92 -35 92 -33.296875 90.4609375 C-31.65443731 88.94372334 -31.65443731 88.94372334 -32.0625 85.9375 C-32.98562426 81.04913742 -35.06457313 76.55761812 -37 72 C-42.28 71.67 -47.56 71.34 -53 71 C-53 64.73 -53 58.46 -53 52 C-45.08 51.505 -45.08 51.505 -37 51 C-36.175 49.123125 -35.35 47.24625 -34.5 45.3125 C-34.0359375 44.25675781 -33.571875 43.20101562 -33.09375 42.11328125 C-32.00655864 39.01866869 -31.41520181 37.21639003 -32 34 C-33.94494486 31.45072503 -33.94494486 31.45072503 -36.5 29.1875 C-37.3353125 28.39730469 -38.170625 27.60710937 -39.03125 26.79296875 C-40.00578125 25.90544922 -40.00578125 25.90544922 -41 25 C-39.41332422 21.09714233 -36.86649519 18.66479018 -33.875 15.75 C-32.96492188 14.85796875 -32.05484375 13.9659375 -31.1171875 13.046875 C-30.41851562 12.37140625 -29.71984375 11.6959375 -29 11 C-25.24980832 12.25006389 -24.42481772 13.93331877 -22 17 C-19.62157423 19.40406384 -19.62157423 19.40406384 -17 21 C-13.38976894 20.51277855 -10.08176528 18.84987876 -6.75 17.4375 C-4.8525 16.633125 -2.955 15.82875 -1 15 C-0.67 10.05 -0.34 5.1 0 0 Z M-26 35 C-27.94430574 37.55696458 -29.54634262 40.13673546 -31 43 C-31.3196875 43.6290625 -31.639375 44.258125 -31.96875 44.90625 C-35.83744214 54.21976812 -35.45780192 67.3408293 -32.0390625 76.734375 C-26.26681739 89.32047335 -18.11449453 97.69658265 -5.30078125 103.1484375 C5.99439401 106.06245905 20.36470704 105.34787516 30.53125 99.55859375 C41.25726827 92.59637406 48.59176198 83.61756539 51.58105469 71.15209961 C53.71079864 60.2117191 52.68432849 48.67074068 47 39 C39.44459558 28.3917779 29.91838595 21.23434467 17.078125 18.46875 C-0.15796096 15.84396534 -14.74687606 21.71227106 -26 35 Z " fill="#626262" transform="translate(360,215)"/>
<path d="M0 0 C23.43 0 46.86 0 71 0 C71 3.3 71 6.6 71 10 C50.87 10 30.74 10 10 10 C10 16.6 10 23.2 10 30 C26.83 30 43.66 30 61 30 C61 33.3 61 36.6 61 40 C44.17 40 27.34 40 10 40 C10 46.6 10 53.2 10 60 C30.13 60 50.26 60 71 60 C71 63.63 71 67.26 71 71 C47.57 71 24.14 71 0 71 C0 47.57 0 24.14 0 0 Z " fill="#676767" transform="translate(438,437)"/>
<path d="M0 0 C0.92792358 -0.0038269 1.85584717 -0.00765381 2.81188965 -0.01159668 C4.76506644 -0.01430703 6.71828007 -0.00700755 8.67138672 0.00976562 C11.64763924 0.03118802 14.62147811 0.00993425 17.59765625 -0.015625 C19.50260945 -0.01298157 21.40756116 -0.00785627 23.3125 0 C24.6362262 -0.01214539 24.6362262 -0.01214539 25.98669434 -0.02453613 C32.73117426 0.07696996 36.99273234 1.66290843 42.08203125 6.27734375 C45.92577785 10.96563185 48.15625 14.27381084 48.15625 20.53125 C44.52625 20.53125 40.89625 20.53125 37.15625 20.53125 C36.929375 19.603125 36.7025 18.675 36.46875 17.71875 C34.86754864 13.83011811 33.94400295 13.24007451 30.15625 11.53125 C27.27892472 11.23198069 24.62473064 11.08666543 21.75 11.09765625 C20.94767944 11.0924144 20.14535889 11.08717255 19.31872559 11.08177185 C17.62769729 11.07536769 15.93662434 11.07666783 14.24560547 11.08520508 C11.66423032 11.09372366 9.08506352 11.06492053 6.50390625 11.03320312 C4.85677149 11.03159107 3.20963284 11.03216872 1.5625 11.03515625 C0.79466187 11.02392227 0.02682373 11.01268829 -0.76428223 11.00111389 C-4.49937289 11.04949307 -6.63530839 11.39716104 -9.80664062 13.43725586 C-14.62659249 18.3918013 -13.14697687 26.1892231 -13.19384766 32.73339844 C-13.21038059 34.4249449 -13.23763581 36.11642227 -13.27587891 37.80761719 C-13.33085365 40.25231999 -13.35255304 42.695386 -13.3671875 45.140625 C-13.38985687 45.89083923 -13.41252625 46.64105347 -13.43588257 47.41400146 C-13.42032374 51.31096485 -12.80425075 53.60121449 -10.87963867 57.01025391 C-6.76645118 60.42583686 -3.94116851 60.37219339 1.25390625 60.2578125 C2.5608268 60.25930801 2.5608268 60.25930801 3.89414978 60.26083374 C5.73071445 60.25616481 7.56729336 60.23678047 9.40356445 60.20361328 C12.21356562 60.15633722 15.01977916 60.16250541 17.83007812 60.17578125 C19.6172101 60.16462913 21.40432612 60.15041024 23.19140625 60.1328125 C24.03002701 60.13463531 24.86864777 60.13645813 25.73268127 60.13833618 C29.52132535 60.0462559 31.53822804 59.97429236 34.6784668 57.72314453 C36.80895361 54.56313948 36.82824099 51.4699617 36.90625 47.78125 C36.98875 45.38875 37.07125 42.99625 37.15625 40.53125 C27.25625 40.53125 17.35625 40.53125 7.15625 40.53125 C7.15625 37.23125 7.15625 33.93125 7.15625 30.53125 C20.35625 30.53125 33.55625 30.53125 47.15625 30.53125 C47.23875 34.65625 47.32125 38.78125 47.40625 43.03125 C47.44266602 44.31580078 47.47908203 45.60035156 47.51660156 46.92382812 C47.58121406 53.62268557 47.33533629 59.07274457 43.15625 64.53125 C40.90234375 66.58984375 40.90234375 66.58984375 38.59375 67.96875 C37.44712891 68.67837891 37.44712891 68.67837891 36.27734375 69.40234375 C31.78550917 71.7930255 27.57493569 71.72442167 22.61328125 71.76953125 C21.77085373 71.777603 20.92842621 71.78567474 20.06047058 71.79399109 C18.27593027 71.80781978 16.49136365 71.81854737 14.70678711 71.82641602 C12.89030149 71.83791584 11.07384914 71.85833596 9.25756836 71.88793945 C6.62590689 71.93083005 3.99524985 71.9468163 1.36328125 71.95703125 C0.5609053 71.97453934 -0.24147064 71.99204742 -1.06816101 72.01008606 C-7.66623036 71.98503408 -12.84112494 70.12231834 -17.8671875 65.78515625 C-18.31320312 65.22699219 -18.75921875 64.66882813 -19.21875 64.09375 C-19.68023437 63.53816406 -20.14171875 62.98257813 -20.6171875 62.41015625 C-23.96331353 57.28440268 -24.15125245 52.6966065 -24.14453125 46.7578125 C-24.14881638 45.9158432 -24.1531015 45.0738739 -24.15751648 44.20639038 C-24.16324516 42.4295949 -24.16377084 40.65277596 -24.15942383 38.87597656 C-24.15626851 36.17211425 -24.17972453 33.46935186 -24.20507812 30.765625 C-24.20735189 29.03385554 -24.20805425 27.30208315 -24.20703125 25.5703125 C-24.216241 24.76904938 -24.22545074 23.96778625 -24.23493958 23.14224243 C-24.17468989 15.75086708 -22.11541228 9.94934734 -16.84375 4.53125 C-11.13208014 0.54524927 -6.87756441 -0.06310268 0 0 Z " fill="#656565" transform="translate(380.84375,436.46875)"/>
<path d="M0 0 C11 0 11 0 13.7265625 1.87109375 C14.35304688 2.71800781 14.97953125 3.56492187 15.625 4.4375 C16.346875 5.35144531 17.06875 6.26539063 17.8125 7.20703125 C18.534375 8.12871094 19.25625 9.05039062 20 10 C21.51712861 11.56582024 23.0583986 13.10867804 24.625 14.625 C27.34915593 17.31151647 29.9501276 20.03071117 32.4375 22.9375 C35.94229928 27.02778779 39.75198614 30.7670907 43.58203125 34.55078125 C46.23473757 37.23777134 48.71335791 40.02430608 51.13671875 42.91796875 C53.95765004 46.07007856 57.00889238 49.00889238 60 52 C60.33 34.84 60.66 17.68 61 0 C64.63 0 68.26 0 72 0 C72 23.76 72 47.52 72 72 C61 72 61 72 57.25 68.4375 C56.16116054 66.96238178 55.07776214 65.4832309 54 64 C52.85802341 62.80915505 51.6914392 61.64135658 50.5 60.5 C48.13621035 58.18459303 45.91806297 55.80210492 43.76171875 53.29296875 C40.05287106 49.02754894 36.20337697 44.91161022 32.3125 40.8125 C25.4765972 33.59954026 18.74184349 26.30366378 12 19 C11.67 36.49 11.34 53.98 11 72 C7.37 72 3.74 72 0 72 C0 48.24 0 24.48 0 0 Z " fill="#6B6B6B" transform="translate(517,436)"/>
<path d="M0 0 C11 0 11 0 14.75 3.53125 C15.8455201 5.01189355 16.92894429 6.50156439 18 8 C19.1245224 9.25894807 20.27038635 10.4991818 21.4375 11.71875 C22.01483887 12.33290771 22.59217773 12.94706543 23.18701172 13.57983398 C23.78529785 14.21348877 24.38358398 14.84714355 25 15.5 C26.31519829 16.89704681 27.63029956 18.29418497 28.9453125 19.69140625 C29.94739746 20.75512451 29.94739746 20.75512451 30.96972656 21.84033203 C32.9823688 23.98124512 34.98838382 26.12815835 36.9921875 28.27734375 C43.54917091 35.30612906 50.13656936 42.26827698 57 49 C58.32 50.32 59.64 51.64 61 53 C61 35.51 61 18.02 61 0 C64.3 0 67.6 0 71 0 C71 23.76 71 47.52 71 72 C61 72 61 72 58.61816406 70.67749023 C58.08932617 70.06075439 57.56048828 69.44401855 57.015625 68.80859375 C56.39776123 68.11854248 55.77989746 67.42849121 55.14331055 66.7175293 C54.51851807 65.96511963 53.89372559 65.21270996 53.25 64.4375 C51.8661525 62.8695559 50.48203269 61.30185211 49.09765625 59.734375 C48.4133252 58.93966797 47.72899414 58.14496094 47.02392578 57.32617188 C44.00565033 53.85715758 40.84663477 50.52769537 37.6875 47.1875 C29.52397786 38.44874233 21.39148658 29.68248452 13.55859375 20.64453125 C12.08139976 18.89838432 12.08139976 18.89838432 10 18 C10 35.82 10 53.64 10 72 C6.7 72 3.4 72 0 72 C0 48.24 0 24.48 0 0 Z " fill="#626262" transform="translate(148,436)"/>
<path d="M0 0 C23.43 0 46.86 0 71 0 C71 3.3 71 6.6 71 10 C50.87 10 30.74 10 10 10 C10 16.27 10 22.54 10 29 C26.83 29 43.66 29 61 29 C61 32.63 61 36.26 61 40 C44.17 40 27.34 40 10 40 C10 50.23 10 60.46 10 71 C6.7 71 3.4 71 0 71 C0 47.57 0 24.14 0 0 Z " fill="#616161" transform="translate(230,437)"/>
<path d="M0 0 C8.1600761 6.79191963 15.03404255 14.89594604 16.95703125 25.62890625 C18.27417336 40.47252517 15.92757982 52.76339882 6.36328125 64.6015625 C-1.26498108 72.78755156 -10.67645528 77.4317158 -21.84765625 77.96484375 C-35.97436372 78.21703256 -45.3356567 76.40082115 -56.04296875 66.62890625 C-64.64550307 58.14537933 -69.16489071 48.55566193 -69.42333984 36.38867188 C-69.38931009 22.86339339 -65.06678737 12.99011748 -55.85546875 2.94140625 C-40.62567666 -11.54711278 -16.85091491 -12.47405389 0 0 Z M-56.8984375 11.796875 C-63.59053471 21.1327637 -65.33748619 31.29245255 -64.04296875 42.62890625 C-61.26272603 53.66929038 -54.45294379 62.14493838 -44.85546875 68.12890625 C-35.40999728 73.51736759 -24.71882696 74.19832868 -14.2265625 71.4453125 C-3.49242956 67.43201414 4.23335768 60.37591809 8.95703125 50.02734375 C12.84070916 40.71258501 13.44495438 30.76402572 10.1171875 21.13671875 C5.2957273 10.71457246 -2.52068019 3.12557443 -13.10546875 -1.30859375 C-29.67692491 -6.02644604 -45.71695901 -1.26779987 -56.8984375 11.796875 Z " fill="#F5F5F5" transform="translate(395.04296875,241.37109375)"/>
<path d="M0 0 C23.43 0 46.86 0 71 0 C71 3.3 71 6.6 71 10 C50.87 10 30.74 10 10 10 C10 16.6 10 23.2 10 30 C26.83 30 43.66 30 61 30 C61 30.33 61 30.66 61 31 C60.25234375 31.03738281 59.5046875 31.07476562 58.734375 31.11328125 C57.74953125 31.17902344 56.7646875 31.24476563 55.75 31.3125 C54.77546875 31.37050781 53.8009375 31.42851562 52.796875 31.48828125 C49.7231451 32.05065362 48.37229063 33.04233539 46 35 C45.34 35 44.68 35 44 35 C44.33 34.01 44.66 33.02 45 32 C43.35 31.67 41.7 31.34 40 31 C39.67 32.32 39.34 33.64 39 35 C36.03 35.495 36.03 35.495 33 36 C32.34 34.35 31.68 32.7 31 31 C30.34 31.33 29.68 31.66 29 32 C29.26676204 33.98491642 29.26676204 33.98491642 30 36 C31.485 36.495 31.485 36.495 33 37 C32.505 37.99 32.505 37.99 32 39 C30.25 38.875 30.25 38.875 28 38 C25.75 34.9375 25.75 34.9375 24 32 C21.23723823 32.52268466 18.6739124 33.10869587 16 34 C15.67 34.99 15.34 35.98 15 37 C14.37351562 36.90460938 13.74703125 36.80921875 13.1015625 36.7109375 C12.28429687 36.60007812 11.46703125 36.48921875 10.625 36.375 C9.81289063 36.25898438 9.00078125 36.14296875 8.1640625 36.0234375 C7.44992187 36.01570313 6.73578125 36.00796875 6 36 C2.95198744 39.04801256 2.09184107 41.8519866 1.75 46.125 C1.78526108 49.19847082 1.78526108 49.19847082 4 52 C3.625 54.1875 3.625 54.1875 3 56 C2.34 56 1.68 56 1 56 C1.33 60.62 1.66 65.24 2 70 C1.34 70 0.68 70 0 70 C0 46.9 0 23.8 0 0 Z " fill="#636363" transform="translate(438,437)"/>
<path d="M0 0 C2.97 0 5.94 0 9 0 C9 23.1 9 46.2 9 70 C-1 70 -1 70 -3.5625 68.0625 C-4.366875 67.051875 -5.17125 66.04125 -6 65 C-7.53574419 63.53543112 -9.077983 62.07765641 -10.625 60.625 C-14.33874355 56.93597354 -16.41480461 53.96694555 -18 49 C-16.824375 48.319375 -16.824375 48.319375 -15.625 47.625 C-12.96301969 46.11571258 -12.96301969 46.11571258 -11 44 C-9.66070495 45.28548409 -8.32871357 46.57858155 -7 47.875 C-6.2575 48.59429687 -5.515 49.31359375 -4.75 50.0546875 C-3 52 -3 52 -3 54 C-2.01 53.505 -2.01 53.505 -1 53 C-0.67 35.51 -0.34 18.02 0 0 Z " fill="#636363" transform="translate(579,437)"/>
<path d="M0 0 C4.40608743 2.16298837 7.1987497 4.39680479 9 9 C9.68426057 14.04325384 9.5739862 17.83076884 7.3125 22.4375 C5.00981833 24.98912023 3.09627037 26.53334561 0 28 C-0.66 28 -1.32 28 -2 28 C-2 34.27 -2 40.54 -2 47 C-3.98 47 -5.96 47 -8 47 C-8 40.73 -8 34.46 -8 28 C-9.98 27.34 -11.96 26.68 -14 26 C-18.65291637 21.09557464 -19.35745159 16.9852176 -19.28125 10.44140625 C-18.75865737 5.90501192 -16.17247268 4.00005022 -12.875 1.1875 C-8.56612378 -0.59225322 -4.59322907 -0.66248496 0 0 Z " fill="#636363" transform="translate(374,162)"/>
<path d="M0 0 C1.98 0 3.96 0 6 0 C6 6.27 6 12.54 6 19 C7.98 19.66 9.96 20.32 12 21 C14.9802879 23.65634356 16.66942323 25.25667532 17.4140625 29.18359375 C17.5978871 34.13850226 16.81984141 37.81885585 14 42 C9.67674378 45.90147512 7.006063 47.35340087 1.09765625 47.2890625 C-3.38786453 46.67094604 -7.17335415 43.42172918 -10 40 C-11.676194 34.97141801 -11.60642735 30.65969589 -9.8125 25.75 C-7.83796442 22.75415292 -6.00331577 20.95215525 -3 19 C-2.01 19 -1.02 19 0 19 C0 12.73 0 6.46 0 0 Z " fill="#656565" transform="translate(366,344)"/>
<path d="M0 0 C3.76773127 1.87578037 4.87267367 2.90666412 6.6953125 6.9375 C7.96263367 9.2658837 8.52684362 10.16433644 11.07519531 11.00561523 C13.51270027 11.25792108 15.8702309 11.31379015 18.3203125 11.28125 C19.16078125 11.29736328 20.00125 11.31347656 20.8671875 11.33007812 C22.93460054 11.36531812 25.00265276 11.35864055 27.0703125 11.34375 C27.0703125 12.99375 27.0703125 14.64375 27.0703125 16.34375 C20.8003125 16.34375 14.5303125 16.34375 8.0703125 16.34375 C7.7403125 17.99375 7.4103125 19.64375 7.0703125 21.34375 C3.98115279 24.92067177 1.81536217 27.07644179 -3.015625 27.546875 C-9.35755942 27.67674396 -12.492566 26.64547586 -17.1796875 22.21875 C-19.57283302 18.28715378 -20.38102132 14.9412352 -19.9296875 10.34375 C-18.2999379 6.20117063 -15.96632947 3.24030522 -12.6171875 0.34375 C-8.27308966 -1.2726585 -4.36024687 -1.48283699 0 0 Z " fill="#626262" transform="translate(273.9296875,262.65625)"/>
<path d="M0 0 C4.01117557 2.10756683 6.55142868 4.01718517 8.09375 8.28125 C8.80200481 12.94272297 9.20017331 17.29107976 6.8515625 21.515625 C3.94354846 25.01681603 1.76528023 27.01664129 -2.95703125 27.484375 C-8.0198231 27.58930333 -11.65775386 27.34411931 -15.90625 24.28125 C-16.43089844 23.105625 -16.95554687 21.93 -17.49609375 20.71875 C-18.77626762 18.38481317 -19.35510418 17.46353506 -21.91333008 16.61743164 C-24.3497932 16.36704514 -26.70738555 16.31122602 -29.15625 16.34375 C-29.99671875 16.32763672 -30.8371875 16.31152344 -31.703125 16.29492188 C-33.77053804 16.25968188 -35.83859026 16.26635945 -37.90625 16.28125 C-37.90625 14.63125 -37.90625 12.98125 -37.90625 11.28125 C-31.96625 11.28125 -26.02625 11.28125 -19.90625 11.28125 C-19.24625 9.30125 -18.58625 7.32125 -17.90625 5.28125 C-13.33907134 -0.07468932 -6.82729439 -2.57422575 0 0 Z " fill="#656565" transform="translate(474.90625,262.71875)"/>
<path d="M0 0 C3.12578143 1.6720747 5.39281175 3.7856235 7 7 C7.57610092 11.72213866 7.3968295 15.17694623 5.3125 19.5 C2.71684336 22.30611528 1.64532765 22.46801188 -2 23 C-2.83718645 33.91358815 -2.83718645 33.91358815 1.55078125 43.4375 C3.51683054 45.39588314 5.55132275 47.05565817 7.7265625 48.80078125 C8.47679687 49.52652344 9.22703125 50.25226563 10 51 C9.8359375 53.29296875 9.8359375 53.29296875 9 55 C5 55 5 55 2.01953125 52.4453125 C0.94014084 51.34866247 -0.12856588 50.24141546 -1.1875 49.125 C-1.73341797 48.56941406 -2.27933594 48.01382813 -2.84179688 47.44140625 C-8.32940928 41.79739349 -8.23580847 37.85988146 -8.16601562 30.296875 C-8.23006591 28.05317417 -8.35334171 26.15180156 -9 24 C-11.8275869 21.57986033 -11.8275869 21.57986033 -15 20 C-17.82792793 15.7581081 -17.78122286 11.98126257 -17 7 C-13.15152913 -0.15329158 -7.53298001 -1.06130806 0 0 Z " fill="#656565" transform="translate(312,174)"/>
<path d="M0 0 C6.32747991 2.70300112 12.62543379 7.94354169 16 14 C17.40483572 19.93318917 16.71902761 26.00810326 16 32 C17.16595703 32.42925781 17.16595703 32.42925781 18.35546875 32.8671875 C21.81998112 34.35124745 23.09235335 35.74993533 25 39 C25.82192719 45.36993573 24.73668485 48.81015993 21 54 C16.86631125 56.59980424 12.74772455 56.7036806 8 56 C4.66399633 53.94161475 3.1737824 52.2606736 1 49 C0.30497214 44.23178561 0.30562839 40.23443842 2.6875 36 C5.07500418 33.93513152 7.07078151 33.08813423 10 32 C10.78189993 21.46706846 10.78189993 21.46706846 6.26171875 12.3359375 C4.14371925 10.17718275 1.89989842 8.2075707 -0.41015625 6.2578125 C-1.26480469 5.51273437 -2.11945313 4.76765625 -3 4 C-3 3.34 -3 2.68 -3 2 C-2.01 1.34 -1.02 0.68 0 0 Z " fill="#636363" transform="translate(418,323)"/>
<path d="M0 0 C0.86625 0.3403125 0.86625 0.3403125 1.75 0.6875 C1.75 1.6775 1.75 2.6675 1.75 3.6875 C18.58 3.6875 35.41 3.6875 52.75 3.6875 C52.75 7.3175 52.75 10.9475 52.75 14.6875 C35.92 14.6875 19.09 14.6875 1.75 14.6875 C1.42 16.3375 1.09 17.9875 0.75 19.6875 C-1.70763465 21.01084173 -3.45597646 21.6875 -6.25 21.6875 C-6.25 20.6975 -6.25 19.7075 -6.25 18.6875 C-3.75 17 -3.75 17 -1.25 15.6875 C-1.58 14.0375 -1.91 12.3875 -2.25 10.6875 C-3.9 10.3575 -5.55 10.0275 -7.25 9.6875 C-6.76454933 3.25527857 -6.76454933 3.25527857 -4.4375 0.6875 C-2.25 -0.3125 -2.25 -0.3125 0 0 Z " fill="#636363" transform="translate(238.25,462.3125)"/>
<path d="M0 0 C3.80741448 2.07828301 6.413242 4.96574263 8 9 C8.24304248 13.52869146 7.56741246 17.11105381 5.125 20.9375 C2.04347749 23.9283895 -0.05200249 25.31240767 -4.3125 25.4375 C-7.72245593 25.35962172 -9.78414619 24.90364167 -12.5 22.8125 C-15 20 -15 20 -16 15 C-21.61 15 -27.22 15 -33 15 C-33.66 16.32 -34.32 17.64 -35 19 C-36.49377563 20.62859293 -38.03988064 22.21016976 -39.625 23.75 C-40.44226563 24.54921875 -41.25953125 25.3484375 -42.1015625 26.171875 C-42.72804688 26.77515625 -43.35453125 27.3784375 -44 28 C-45.32 27.34 -46.64 26.68 -48 26 C-47.32146254 20.40885136 -42.84926369 16.21118863 -38.8984375 12.53125 C-32.40873426 7.52165451 -23.66625665 9.13393753 -16 10 C-15.88527344 9.22140625 -15.77054687 8.4428125 -15.65234375 7.640625 C-14.7653205 4.05003985 -12.99095631 3.04260431 -10 1 C-6.76755038 -0.61622481 -3.49426864 -0.58454308 0 0 Z " fill="#676767" transform="translate(464,202)"/>
<path d="M0 0 C2.475 0.99 2.475 0.99 5 2 C3.39379474 6.02507388 0.54433659 8.71789519 -2.5 11.6875 C-2.99886719 12.18572266 -3.49773437 12.68394531 -4.01171875 13.19726562 C-8.79971347 17.92749633 -8.79971347 17.92749633 -11.87939453 18.11352539 C-12.62302246 18.10828857 -13.36665039 18.10305176 -14.1328125 18.09765625 C-14.93847656 18.09443359 -15.74414062 18.09121094 -16.57421875 18.08789062 C-17.41597656 18.07951172 -18.25773437 18.07113281 -19.125 18.0625 C-19.97449219 18.05798828 -20.82398438 18.05347656 -21.69921875 18.04882812 C-23.79950909 18.03702874 -25.8997633 18.01909306 -28 18 C-28.433125 19.42699219 -28.433125 19.42699219 -28.875 20.8828125 C-30 24 -30 24 -32 25.875 C-36.37483286 27.51556232 -40.39141341 27.81863051 -45 27 C-48.2871757 24.53461823 -50.69025233 21.92924302 -52 18 C-52.51316889 14.06570518 -52.17834015 12.32483385 -50.25 8.8125 C-46.89033069 4.61291337 -45.59807601 3.18042794 -40.125 2.5625 C-35.84320378 2.72226852 -33.30297194 4.24752338 -30 7 C-28 10 -28 10 -28 13 C-17.44685778 13.76360083 -17.44685778 13.76360083 -8.265625 9.26171875 C-5.26876667 6.36921996 -2.59302932 3.25601977 0 0 Z " fill="#636363" transform="translate(318,323)"/>
<path d="M0 0 C0.886875 0.66 1.77375 1.32 2.6875 2 C3.5125 2.556875 4.3375 3.11375 5.1875 3.6875 C13.09689408 11.00368953 16.6949877 20.23566334 17.125 30.875 C16.79205621 42.13718562 12.57341081 50.93987618 4.83984375 58.90234375 C-4.16941576 67.37427168 -13.86674963 69.40153499 -25.99609375 69.27734375 C-36.16223431 68.42717181 -44.11266347 62.52951769 -51 55.375 C-57.67773501 47.28820164 -60.11289818 38.71656859 -59.65625 28.31640625 C-58.54196632 17.56610116 -54.09056311 9.02718961 -45.84765625 1.85546875 C-43.4039729 0.06694858 -40.94352014 -1.50326083 -38.3125 -3 C-37.71308594 -3.35964844 -37.11367188 -3.71929687 -36.49609375 -4.08984375 C-24.92413272 -9.7075519 -10.34805357 -6.2478814 0 0 Z M-48.671875 7.87890625 C-55.78394978 17.07380293 -57.56521792 25.51042555 -56.3125 37 C-54.72119881 46.47018269 -49.81542566 54.82274127 -42.18359375 60.71484375 C-41.56613281 61.13894531 -40.94867188 61.56304687 -40.3125 62 C-39.72597656 62.41378906 -39.13945312 62.82757813 -38.53515625 63.25390625 C-30.19059546 67.9962606 -18.28043049 67.24209391 -9.140625 65.33984375 C0.80658099 61.77182421 7.16659894 54.31535982 11.6875 45 C15.05310875 36.46005398 14.99917316 25.62945602 11.6875 17 C7.0469776 7.99372297 0.225005 1.41910557 -9.3125 -2 C-10.09753906 -2.34933594 -10.88257813 -2.69867188 -11.69140625 -3.05859375 C-24.40447566 -7.62468872 -39.89920886 -1.65214458 -48.671875 7.87890625 Z " fill="#5F5F5F" transform="translate(390.3125,245)"/>
<path d="M0 0 C15.18 0 30.36 0 46 0 C46 3.3 46 6.6 46 10 C30.82 10 15.64 10 0 10 C0 6.7 0 3.4 0 0 Z " fill="#646464" transform="translate(305,467)"/>
<path d="M0 0 C9.70946056 -0.95895907 9.70946056 -0.95895907 13.11328125 1.5703125 C14.88580509 3.63760195 16.45400439 5.75931026 18 8 C18.96730575 9.17651947 19.94513233 10.34454127 20.9375 11.5 C21.618125 12.325 22.29875 13.15 23 14 C21.625 16 21.625 16 20 18 C19.34 18 18.68 18 18 18 C18 19.32 18 20.64 18 22 C17.01 22.33 16.02 22.66 15 23 C13.35 21.35 11.7 19.7 10 18 C9.91363281 18.69867188 9.82726562 19.39734375 9.73828125 20.1171875 C9.31809605 22.838754 8.86353343 25.38323203 8 28 C5.4375 29.375 5.4375 29.375 3 30 C2.11306697 32.04105639 2.11306697 32.04105639 2 34 C2 31.69 2 29.38 2 27 C2.99 26.67 3.98 26.34 5 26 C5 23.69 5 21.38 5 19 C3.35 19 1.7 19 0 19 C0 12.73 0 6.46 0 0 Z " fill="#686868" transform="translate(148,436)"/>
<path d="M0 0 C1.11439453 0.00322266 2.22878906 0.00644531 3.37695312 0.00976562 C4.48748047 -0.00634766 5.59800781 -0.02246094 6.7421875 -0.0390625 C8.33836914 -0.0400293 8.33836914 -0.0400293 9.96679688 -0.04101562 C11.43234009 -0.04548706 11.43234009 -0.04548706 12.92749023 -0.05004883 C15.80358411 0.37623586 16.67546768 1.0718174 18.43945312 3.32226562 C16.78945313 3.98226563 15.13945312 4.64226562 13.43945312 5.32226562 C13.10945313 10.27226562 12.77945312 15.22226562 12.43945312 20.32226562 C6.16945313 20.32226562 -0.10054688 20.32226562 -6.56054688 20.32226562 C-6.87304688 12.44726562 -6.87304688 12.44726562 -6.94848633 9.97119141 C-7.04563798 8.07968893 -7.30074962 6.19835876 -7.56054688 4.32226562 C-8.55054688 3.66226562 -9.54054688 3.00226563 -10.56054688 2.32226562 C-7.46542704 -0.77285421 -4.22756278 0.02820084 0 0 Z " fill="#626262" transform="translate(365.560546875,317.677734375)"/>
<path d="M0 0 C1.051875 -0.00773438 2.10375 -0.01546875 3.1875 -0.0234375 C6 0.375 6 0.375 7.8515625 1.55859375 C9.42987301 4.05490119 9.39891203 5.87530525 9.375 8.8125 C9.38273438 9.75996094 9.39046875 10.70742188 9.3984375 11.68359375 C8.92806935 14.86088447 8.37959 16.21127998 6 18.375 C3.1875 18.90625 3.1875 18.90625 0 18.875 C-1.5778125 18.89046875 -1.5778125 18.89046875 -3.1875 18.90625 C-6 18.375 -6 18.375 -7.8515625 16.69140625 C-9.23974189 13.89143897 -9.40044713 11.92977396 -9.375 8.8125 C-9.38273438 7.86246094 -9.39046875 6.91242187 -9.3984375 5.93359375 C-9 3.375 -9 3.375 -7.8515625 1.55859375 C-5.19821483 -0.13753356 -3.1246219 -0.02297516 0 0 Z " fill="#838383" transform="translate(566,554.625)"/>
<path d="M0 0 C6.32747991 2.70300112 12.62543379 7.94354169 16 14 C17.40483572 19.93318917 16.71902761 26.00810326 16 32 C16.78375 32.268125 17.5675 32.53625 18.375 32.8125 C21 34 21 34 23 37 C21.78294994 38.01471171 20.55073116 39.0112461 19.3125 40 C18.62800781 40.556875 17.94351562 41.11375 17.23828125 41.6875 C14.54931231 43.2642776 13.06935576 43.43847939 10 43 C7.1875 40.5 7.1875 40.5 5 38 C5.33 37.01 5.66 36.02 6 35 C9 35 9 35 11.1875 37 C11.785625 37.66 12.38375 38.32 13 39 C13.99 38.505 13.99 38.505 15 38 C15.33 37.01 15.66 36.02 16 35 C14.515 35.495 14.515 35.495 13 36 C12.67 34.35 12.34 32.7 12 31 C11.01 32.485 11.01 32.485 10 34 C9.34 33.34 8.68 32.68 8 32 C8.66 32 9.32 32 10 32 C10.78189993 21.46706846 10.78189993 21.46706846 6.26171875 12.3359375 C4.14371925 10.17718275 1.89989842 8.2075707 -0.41015625 6.2578125 C-1.26480469 5.51273437 -2.11945313 4.76765625 -3 4 C-3 3.34 -3 2.68 -3 2 C-2.01 1.34 -1.02 0.68 0 0 Z " fill="#666666" transform="translate(418,323)"/>
<path d="M0 0 C2.71484375 -0.3984375 2.71484375 -0.3984375 5.9375 -0.375 C6.99839844 -0.38273438 8.05929688 -0.39046875 9.15234375 -0.3984375 C12 0 12 0 13.85546875 1.18359375 C15.4285514 3.68012424 15.39889232 5.50272638 15.375 8.4375 C15.38273437 9.38496094 15.39046875 10.33242188 15.3984375 11.30859375 C14.92784381 14.48740801 14.3861467 15.83990931 12 18 C9.15234375 18.49609375 9.15234375 18.49609375 5.9375 18.4375 C4.34228516 18.43556641 4.34228516 18.43556641 2.71484375 18.43359375 C1.37099609 18.21896484 1.37099609 18.21896484 0 18 C-2.30821663 14.53767506 -2.27000989 13.08201684 -2.25 9 C-2.25515625 7.948125 -2.2603125 6.89625 -2.265625 5.8125 C-2 3 -2 3 0 0 Z " fill="#FAFAFA" transform="translate(236,555)"/>
<path d="M0 0 C0.94746094 -0.00773438 1.89492188 -0.01546875 2.87109375 -0.0234375 C6.1062466 0.45549659 7.42883288 0.87156387 9.5625 3.375 C9.85892569 6.08729503 9.94311189 8.37239732 9.8125 11.0625 C9.79445313 11.76439453 9.77640625 12.46628906 9.7578125 13.18945312 C9.71076213 14.91855436 9.63901873 16.64695205 9.5625 18.375 C8.5725 18.375 7.5825 18.375 6.5625 18.375 C6.5625 16.725 6.5625 15.075 6.5625 13.375 C2.6025 13.375 -1.3575 13.375 -5.4375 13.375 C-5.4375 15.025 -5.4375 16.675 -5.4375 18.375 C-6.4275 18.375 -7.4175 18.375 -8.4375 18.375 C-8.5184723 15.93683415 -8.57796972 13.50135616 -8.625 11.0625 C-8.65013672 10.37220703 -8.67527344 9.68191406 -8.70117188 8.97070312 C-8.74283131 6.0962021 -8.76539482 3.92258434 -7.265625 1.41796875 C-4.75673839 -0.01338323 -2.87758537 -0.02342675 0 0 Z " fill="#6A6A6A" transform="translate(523.4375,554.625)"/>
<path d="M0 0 C0.66 0.66 1.32 1.32 2 2 C1.90406167 5.54971811 1.04720805 6.94361261 -1.25 9.6875 C-4 12 -4 12 -9 14 C-9 20.27 -9 26.54 -9 33 C-10.98 33 -12.96 33 -15 33 C-15 26.73 -15 20.46 -15 14 C-15.66 13.67 -16.32 13.34 -17 13 C-17.33 12.01 -17.66 11.02 -18 10 C-15.35261084 8.5393715 -14.10551666 8 -11 8 C-11 7.34 -11 6.68 -11 6 C-8.69631264 4.93347808 -6.35981813 3.93578995 -4 3 C-3.34 3.33 -2.68 3.66 -2 4 C-2 3.01 -2 2.02 -2 1 C-1.34 0.67 -0.68 0.34 0 0 Z " fill="#6C6C6C" transform="translate(381,176)"/>
<path d="M0 0 C3.6196875 -0.0928125 3.6196875 -0.0928125 7.3125 -0.1875 C8.44619019 -0.22846802 8.44619019 -0.22846802 9.6027832 -0.27026367 C12.46703415 -0.30593735 14.51469798 -0.31128934 16.9609375 1.2578125 C18.89245364 4.49636964 18.29370153 7.29936076 18 11 C17.34 11.66 16.68 12.32 16 13 C16.66 13.66 17.32 14.32 18 15 C18 15.99 18 16.98 18 18 C14.21503862 16.48601545 13.9927802 15.9855604 12 12 C9.03 12 6.06 12 3 12 C3 13.98 3 15.96 3 18 C2.01 18 1.02 18 0 18 C0 12.06 0 6.12 0 0 Z " fill="#939393" transform="translate(492,555)"/>
<path d="M0 0 C2.43375 -0.04125 4.8675 -0.0825 7.375 -0.125 C8.13989746 -0.14320801 8.90479492 -0.16141602 9.69287109 -0.18017578 C11.46287275 -0.1948117 13.23272455 -0.09928514 15 0 C17 2 17 2 17.1875 5.875 C17.1251554 8.74804694 16.72088654 11.21943761 16 14 C16.33 14.99 16.66 15.98 17 17 C13.125 15.125 13.125 15.125 12 14 C10.48530552 13.76807135 8.96245438 13.58784762 7.4375 13.4375 C6.61121094 13.35371094 5.78492188 13.26992188 4.93359375 13.18359375 C4.29550781 13.12300781 3.65742188 13.06242188 3 13 C3 14.65 3 16.3 3 18 C2.01 18 1.02 18 0 18 C0 12.06 0 6.12 0 0 Z " fill="#535353" transform="translate(256,555)"/>
<path d="M0 0 C5.28 0 10.56 0 16 0 C17.6064243 4.81927289 17.21233655 9.15065381 16 14 C16.33 14.99 16.66 15.98 17 17 C13.125 15.125 13.125 15.125 12 14 C10.48530552 13.76807135 8.96245438 13.58784762 7.4375 13.4375 C6.61121094 13.35371094 5.78492188 13.26992188 4.93359375 13.18359375 C4.29550781 13.12300781 3.65742187 13.06242188 3 13 C3 14.65 3 16.3 3 18 C2.01 18 1.02 18 0 18 C0 12.06 0 6.12 0 0 Z " fill="#767676" transform="translate(580,555)"/>
<path d="M0 0 C5.62018234 5.81398173 7.13798314 12.99460826 7.4375 20.875 C7.10455621 32.13718562 2.88591081 40.93987618 -4.84765625 48.90234375 C-13.08142494 56.6450328 -21.68104979 59.17672398 -32.875 59.0625 C-34.02742188 59.05347656 -35.17984375 59.04445313 -36.3671875 59.03515625 C-37.23601562 59.02355469 -38.10484375 59.01195312 -39 59 C-37.91015625 57.52734375 -37.91015625 57.52734375 -36 56 C-32.99609375 55.62890625 -32.99609375 55.62890625 -29.4375 55.5625 C-20.56709188 55.08697297 -13.20183732 52.98734965 -6.59765625 46.8359375 C1.52654288 37.50006075 3.71137197 28.10784124 3 16 C2.26986963 10.47069808 0.75756525 5.88841112 -2 1 C-1.34 0.67 -0.68 0.34 0 0 Z " fill="#5E5E5E" transform="translate(400,255)"/>
<path d="M0 0 C0.86625 0.3403125 0.86625 0.3403125 1.75 0.6875 C1.75 1.6775 1.75 2.6675 1.75 3.6875 C18.58 3.6875 35.41 3.6875 52.75 3.6875 C52.75 4.0175 52.75 4.3475 52.75 4.6875 C36.25 5.0175 19.75 5.3475 2.75 5.6875 C3.08 7.0075 3.41 8.3275 3.75 9.6875 C4.41 10.0175 5.07 10.3475 5.75 10.6875 C4.75 13.6875 4.75 13.6875 2.75 14.6875 C2.481875 15.491875 2.21375 16.29625 1.9375 17.125 C0.75 19.6875 0.75 19.6875 -1.75 21 C-4.25 21.6875 -4.25 21.6875 -6.25 21.6875 C-6.25 20.6975 -6.25 19.7075 -6.25 18.6875 C-3.75 17 -3.75 17 -1.25 15.6875 C-1.58 14.0375 -1.91 12.3875 -2.25 10.6875 C-3.9 10.3575 -5.55 10.0275 -7.25 9.6875 C-6.76454933 3.25527857 -6.76454933 3.25527857 -4.4375 0.6875 C-2.25 -0.3125 -2.25 -0.3125 0 0 Z " fill="#828282" transform="translate(238.25,462.3125)"/>
<path d="M0 0 C0.33 0 0.66 0 1 0 C1.66 2.31 2.32 4.62 3 7 C3.33 7 3.66 7 4 7 C4.061875 6.21625 4.12375 5.4325 4.1875 4.625 C4.455625 3.75875 4.72375 2.8925 5 2 C7.5625 0.6875 7.5625 0.6875 10 0 C15.04117815 6.05290249 15.04117815 6.05290249 14.875 9.875 C14 12 14 12 13 13 C14.32 13.33 15.64 13.66 17 14 C17 10.04 17 6.08 17 2 C17.33 2 17.66 2 18 2 C18 6.29 18 10.58 18 15 C12.06 15 6.12 15 0 15 C0 10.05 0 5.1 0 0 Z " fill="#5A5A5A" transform="translate(360,323)"/>
<path d="M0 0 C2.97 0 5.94 0 9 0 C9 6.93 9 13.86 9 21 C8.67 21 8.34 21 8 21 C8 14.4 8 7.8 8 1 C5.69 1 3.38 1 1 1 C1 9.91 1 18.82 1 28 C2.65 27.67 4.3 27.34 6 27 C6.33 27.33 6.66 27.66 7 28 C7.33 26.02 7.66 24.04 8 22 C8.33 22 8.66 22 9 22 C9 37.84 9 53.68 9 70 C5.7 70 2.4 70 -1 70 C-1 69.67 -1 69.34 -1 69 C1.97 69 4.94 69 8 69 C8 57.78 8 46.56 8 35 C5.03 35.495 5.03 35.495 2 36 C1.67 36.99 1.34 37.98 1 39 C0.67 39 0.34 39 0 39 C0 26.13 0 13.26 0 0 Z " fill="#595959" transform="translate(579,437)"/>
<path d="M0 0 C5.94 0 11.88 0 18 0 C18 0.99 18 1.98 18 3 C13.05 3 8.1 3 3 3 C3 4.65 3 6.3 3 8 C6.96 8 10.92 8 15 8 C15 8.66 15 9.32 15 10 C11.04 10 7.08 10 3 10 C3 11.65 3 13.3 3 15 C7.95 15 12.9 15 18 15 C18 15.99 18 16.98 18 18 C12.06 18 6.12 18 0 18 C0 12.06 0 6.12 0 0 Z " fill="#A5A5A5" transform="translate(424,555)"/>
<path d="M0 0 C23.43 0 46.86 0 71 0 C71 2.97 71 5.94 71 9 C70.01 8.505 70.01 8.505 69 8 C69.33 5.69 69.66 3.38 70 1 C47.23 1 24.46 1 1 1 C1.12375 8.858125 1.2475 16.71625 1.375 24.8125 C1.40899902 27.29112549 1.44299805 29.76975098 1.47802734 32.32348633 C1.51322768 34.28468193 1.54914831 36.2458648 1.5859375 38.20703125 C1.59729736 39.2280896 1.60865723 40.24914795 1.62036133 41.30114746 C1.64042236 42.27531616 1.6604834 43.24948486 1.68115234 44.25317383 C1.70113785 45.52225334 1.70113785 45.52225334 1.7215271 46.81697083 C1.87258289 49.29091009 1.87258289 49.29091009 4 52 C3.625 54.1875 3.625 54.1875 3 56 C2.34 56 1.68 56 1 56 C1.33 60.62 1.66 65.24 2 70 C1.34 70 0.68 70 0 70 C0 46.9 0 23.8 0 0 Z " fill="#545454" transform="translate(438,437)"/>
<path d="M0 0 C6.27 0 12.54 0 19 0 C19 0.99 19 1.98 19 3 C14.05 3 9.1 3 4 3 C4 4.65 4 6.3 4 8 C7.96 8 11.92 8 16 8 C16 8.99 16 9.98 16 11 C12.04 11 8.08 11 4 11 C4 13.31 4 15.62 4 18 C2.68 18 1.36 18 0 18 C0 12.06 0 6.12 0 0 Z " fill="#BBBBBB" transform="translate(313,555)"/>
<path d="M0 0 C0.33 0 0.66 0 1 0 C1 5.94 1 11.88 1 18 C2.65 17.67 4.3 17.34 6 17 C4.68 16.67 3.36 16.34 2 16 C3.980362 13.3206867 5.00121722 12.99979713 8.375 12.4375 C9.57125 12.293125 10.7675 12.14875 12 12 C14.86069302 11.47458333 14.86069302 11.47458333 17 10 C17.89830839 6.94727535 17.89830839 6.94727535 18 4 C18.33 4 18.66 4 19 4 C19.06058594 4.85722656 19.12117188 5.71445312 19.18359375 6.59765625 C19.61143536 12.43604873 20.059163 18.22057272 21 24 C20.01 24.66 19.02 25.32 18 26 C17.34 24.02 16.68 22.04 16 20 C10.72 19.67 5.44 19.34 0 19 C0 12.73 0 6.46 0 0 Z " fill="#707070" transform="translate(307,267)"/>
<path d="M0 0 C0.9590625 -0.00773438 1.918125 -0.01546875 2.90625 -0.0234375 C5.5 0.375 5.5 0.375 7.34375 1.7109375 C8.5 3.375 8.5 3.375 8.5 6.375 C7.51 6.375 6.52 6.375 5.5 6.375 C5.5 5.385 5.5 4.395 5.5 3.375 C1.87 3.705 -1.76 4.035 -5.5 4.375 C-5.5 7.675 -5.5 10.975 -5.5 14.375 C-1.87 14.375 1.76 14.375 5.5 14.375 C5.83 13.055 6.16 11.735 6.5 10.375 C3.86 10.375 1.22 10.375 -1.5 10.375 C-1.5 9.715 -1.5 9.055 -1.5 8.375 C1.8 8.375 5.1 8.375 8.5 8.375 C8.86595174 14.84014745 8.86595174 14.84014745 7.33203125 17.08203125 C4.82080397 18.85434731 3.04977301 18.77459494 0 18.75 C-0.9590625 18.75773438 -1.918125 18.76546875 -2.90625 18.7734375 C-5.5 18.375 -5.5 18.375 -7.3203125 17.2265625 C-9.01109818 14.5728128 -8.89795794 12.49728019 -8.875 9.375 C-8.88273437 8.323125 -8.89046875 7.27125 -8.8984375 6.1875 C-8.5 3.375 -8.5 3.375 -7.3203125 1.5234375 C-4.80753349 -0.06187801 -2.95355181 -0.02381897 0 0 Z " fill="#4C4C4C" transform="translate(410.5,554.625)"/>
<path d="M0 0 C3.96 0 7.92 0 12 0 C12 3.96 12 7.92 12 12 C8.04 12 4.08 12 0 12 C0 8.04 0 4.08 0 0 Z " fill="#FAFAFA" transform="translate(560,558)"/>
<path d="M0 0 C3.2830098 3.2830098 3.19284362 7.50298589 4 12 C-0.62 12 -5.24 12 -10 12 C-10 8.7 -10 5.4 -10 2 C-6.52254801 0.41030766 -3.83557374 -0.41465662 0 0 Z " fill="#656565" transform="translate(395,262)"/>
<path d="M0 0 C2.3828125 0.2421875 2.3828125 0.2421875 5.125 0.875 C6.03507812 1.07867187 6.94515625 1.28234375 7.8828125 1.4921875 C8.58148438 1.65976562 9.28015625 1.82734375 10 2 C10 5.3 10 8.6 10 12 C5.38 12 0.76 12 -4 12 C-2.25 2.25 -2.25 2.25 0 0 Z " fill="#6D6D6D" transform="translate(343,262)"/>
<path d="M0 0 C4.62 0 9.24 0 14 0 C14.33 3.3 14.66 6.6 15 10 C11.37 10.66 7.74 11.32 4 12 C1.24331998 8.04476345 0.4682121 4.77576339 0 0 Z " fill="#656565" transform="translate(339,279)"/>
<path d="M0 0 C2.71484375 -0.3984375 2.71484375 -0.3984375 5.9375 -0.375 C6.99839844 -0.38273438 8.05929688 -0.39046875 9.15234375 -0.3984375 C12 0 12 0 13.85546875 1.18359375 C15.4285514 3.68012424 15.39889232 5.50272638 15.375 8.4375 C15.38273437 9.38496094 15.39046875 10.33242188 15.3984375 11.30859375 C14.92784381 14.48740801 14.3861467 15.83990931 12 18 C9.15234375 18.49609375 9.15234375 18.49609375 5.9375 18.4375 C4.34228516 18.43556641 4.34228516 18.43556641 2.71484375 18.43359375 C1.37099609 18.21896484 1.37099609 18.21896484 0 18 C-2.30821663 14.53767506 -2.27000989 13.08201684 -2.25 9 C-2.25515625 7.948125 -2.2603125 6.89625 -2.265625 5.8125 C-2 3 -2 3 0 0 Z M0 3 C0 6.96 0 10.92 0 15 C3.96 15 7.92 15 12 15 C12 11.04 12 7.08 12 3 C8.04 3 4.08 3 0 3 Z " fill="#737373" transform="translate(236,555)"/>
<path d="M0 0 C4.29 0 8.58 0 13 0 C13.2954439 5.02254631 12.98514628 7.89542386 10 12 C6.37 11.34 2.74 10.68 -1 10 C-0.67 6.7 -0.34 3.4 0 0 Z " fill="#646464" transform="translate(385,279)"/>
<path d="M0 0 C0.66 0 1.32 0 2 0 C2.33 4.29 2.66 8.58 3 13 C4.98 13 6.96 13 9 13 C9.33 8.71 9.66 4.42 10 0 C10.66 0 11.32 0 12 0 C12.33 4.29 12.66 8.58 13 13 C14.98 13 16.96 13 19 13 C19.33 8.71 19.66 4.42 20 0 C20.66 0 21.32 0 22 0 C22.08097324 2.27024968 22.13917704 4.54132075 22.1875 6.8125 C22.23970703 8.70935547 22.23970703 8.70935547 22.29296875 10.64453125 C22 14 22 14 20.671875 15.9375 C18.12967707 17.55310242 15.94999463 17.18061192 13 17 C10.64500383 17 8.28809476 17.04358604 5.9375 17.1875 C3 17 3 17 1.328125 15.9375 C-0.71083385 12.96301886 -0.28516085 10.36084431 -0.1875 6.8125 C-0.16042969 5.54019531 -0.13335937 4.26789062 -0.10546875 2.95703125 C-0.07066406 1.98121094 -0.03585938 1.00539063 0 0 Z " fill="#525252" transform="translate(206,556)"/>
<path d="M0 0 C1.51400391 0.01740234 1.51400391 0.01740234 3.05859375 0.03515625 C4.07050781 0.04417969 5.08242188 0.05320312 6.125 0.0625 C7.29869141 0.07990234 7.29869141 0.07990234 8.49609375 0.09765625 C8.82609375 1.08765625 9.15609375 2.07765625 9.49609375 3.09765625 C10.15609375 3.75765625 10.81609375 4.41765625 11.49609375 5.09765625 C8.19609375 5.09765625 4.89609375 5.09765625 1.49609375 5.09765625 C1.49609375 5.75765625 1.49609375 6.41765625 1.49609375 7.09765625 C4.13609375 7.09765625 6.77609375 7.09765625 9.49609375 7.09765625 C9.16609375 8.74765625 8.83609375 10.39765625 8.49609375 12.09765625 C6.68367323 12.12452904 4.87114142 12.1439934 3.05859375 12.16015625 C2.04925781 12.17175781 1.03992188 12.18335938 0 12.1953125 C-2.50390625 12.09765625 -2.50390625 12.09765625 -3.50390625 11.09765625 C-3.60214562 9.43336574 -3.63364256 7.76483694 -3.62890625 6.09765625 C-3.63148438 5.19015625 -3.6340625 4.28265625 -3.63671875 3.34765625 C-3.44818505 0.15367356 -3.21403411 0.12535234 0 0 Z " fill="#F3F3F3" transform="translate(407.50390625,557.90234375)"/>
<path d="M0 0 C16.83 0 33.66 0 51 0 C51 0.33 51 0.66 51 1 C49.87851562 1.05607422 49.87851562 1.05607422 48.734375 1.11328125 C47.74953125 1.17902344 46.7646875 1.24476563 45.75 1.3125 C44.77546875 1.37050781 43.8009375 1.42851562 42.796875 1.48828125 C39.7231451 2.05065362 38.37229063 3.04233539 36 5 C35.34 5 34.68 5 34 5 C34.33 4.01 34.66 3.02 35 2 C32.525 1.505 32.525 1.505 30 1 C29.67 2.32 29.34 3.64 29 5 C27.02 5.33 25.04 5.66 23 6 C22.34 4.35 21.68 2.7 21 1 C20.01 1.495 20.01 1.495 19 2 C19.26676204 3.98491642 19.26676204 3.98491642 20 6 C20.99 6.33 21.98 6.66 23 7 C22.67 7.66 22.34 8.32 22 9 C20.25 8.875 20.25 8.875 18 8 C17.54625 7.01 17.0925 6.02 16.625 5 C14.27778902 1.69040192 14.27778902 1.69040192 10.6328125 1.3828125 C7.08129306 1.14699733 3.55895308 1.00951592 0 1 C0 0.67 0 0.34 0 0 Z " fill="#5A5A5A" transform="translate(448,467)"/>
<path d="M0 0 C5.61 0 11.22 0 17 0 C17 0.66 17 1.32 17 2 C12.38 2 7.76 2 3 2 C3 3.65 3 5.3 3 7 C6.96 7 10.92 7 15 7 C15 7.66 15 8.32 15 9 C11.04 9 7.08 9 3 9 C3 10.65 3 12.3 3 14 C7.62 14 12.24 14 17 14 C17 14.66 17 15.32 17 16 C11.39 16 5.78 16 0 16 C0 10.72 0 5.44 0 0 Z " fill="#6A6A6A" transform="translate(470,556)"/>
<path d="M0 0 C2.64 0 5.28 0 8 0 C8 2.97 8 5.94 8 9 C-0.25 9 -8.5 9 -17 9 C-15.35 7.68 -13.7 6.36 -12 5 C-8.9375 5.375 -8.9375 5.375 -6 6 C-3.13453767 5.12444207 -2.27389015 4.46561326 -0.75 1.875 C-0.5025 1.25625 -0.255 0.6375 0 0 Z " fill="#626262" transform="translate(491,468)"/>
<path d="M0 0 C3 0 3 0 4.68359375 1.609375 C5.26238281 2.31578125 5.84117187 3.0221875 6.4375 3.75 C8.85263955 6.63588709 11.28161239 9.3903479 14 12 C14.33 8.37 14.66 4.74 15 1 C15.66 1 16.32 1 17 1 C17 6.28 17 11.56 17 17 C12.94762698 15.98690675 12.1953773 15.54827546 9.5 12.6875 C8.9328125 12.09324219 8.365625 11.49898437 7.78125 10.88671875 C7.1934375 10.26410156 6.605625 9.64148438 6 9 C4.68 7.68 3.36 6.36 2 5 C2 8.96 2 12.92 2 17 C1.34 17 0.68 17 0 17 C0 11.39 0 5.78 0 0 Z " fill="#585858" transform="translate(447,555)"/>
<path d="M0 0 C4.43610768 1.10902692 5.62173827 2.24278827 8.75 5.4375 C9.54921875 6.24058594 10.3484375 7.04367187 11.171875 7.87109375 C13 10 13 10 13 12 C13.66 12 14.32 12 15 12 C15 8.04 15 4.08 15 0 C15.66 0 16.32 0 17 0 C17 5.28 17 10.56 17 16 C13 16 13 16 11.18359375 14.35546875 C10.60738281 13.64003906 10.03117188 12.92460938 9.4375 12.1875 C7.35738643 9.64410947 5.33394639 7.33394639 3 5 C2.67 8.63 2.34 12.26 2 16 C1.34 16 0.68 16 0 16 C0 10.72 0 5.44 0 0 Z " fill="#5B5B5B" transform="translate(140,556)"/>
<path d="M0 0 C0.625 2.3125 0.625 2.3125 1 5 C-1 8 -1 8 -3.13671875 8.68359375 C-6.70324633 9.07771208 -10.23045039 9.10706138 -13.8125 9.0625 C-14.50537109 9.05798828 -15.19824219 9.05347656 -15.91210938 9.04882812 C-17.60811068 9.03713156 -19.30406703 9.01919924 -21 9 C-20.17578125 7.05078125 -20.17578125 7.05078125 -19 5 C-15.0368361 3.85508598 -11.96501494 3.95043722 -8 5 C-7.67 4.01 -7.34 3.02 -7 2 C-4.39757586 0.35179805 -3.13751221 0 0 0 Z " fill="#696969" transform="translate(349,468)"/>
<path d="M0 0 C0 2.64 0 5.28 0 8 C-1.32 8.33 -2.64 8.66 -4 9 C-3.69964844 9.51949219 -3.39929688 10.03898437 -3.08984375 10.57421875 C-1.39748818 13.67782675 -0.07256166 16.20182177 0.25 19.75 C-1.78749958 23.41749924 -5.25574395 24.40408759 -9 26 C-10.155 26.5775 -11.31 27.155 -12.5 27.75 C-13.325 28.1625 -14.15 28.575 -15 29 C-15 27.68 -15 26.36 -15 25 C-14.38125 24.71125 -13.7625 24.4225 -13.125 24.125 C-10.86674235 23.06279958 -10.86674235 23.06279958 -9 21 C-6.68234271 20.28072705 -4.34904126 19.6090107 -2 19 C-2.37253906 18.46890625 -2.74507812 17.9378125 -3.12890625 17.390625 C-3.60199219 16.68421875 -4.07507813 15.9778125 -4.5625 15.25 C-5.03816406 14.55390625 -5.51382813 13.8578125 -6.00390625 13.140625 C-7 11 -7 11 -6.83984375 8.796875 C-6.56269531 8.20390625 -6.28554687 7.6109375 -6 7 C-5.01 6.67 -4.02 6.34 -3 6 C-3.33 5.01 -3.66 4.02 -4 3 C-1.125 0 -1.125 0 0 0 Z " fill="#6C6C6C" transform="translate(218,473)"/>
<path d="M0 0 C0.33 0 0.66 0 1 0 C1 5.94 1 11.88 1 18 C3.475 18.99 3.475 18.99 6 20 C6.66 20.99 7.32 21.98 8 23 C6.78294994 24.01471171 5.55073116 25.0112461 4.3125 26 C3.62800781 26.556875 2.94351562 27.11375 2.23828125 27.6875 C-0.45068769 29.2642776 -1.93064424 29.43847939 -5 29 C-7.8125 26.5 -7.8125 26.5 -10 24 C-9.505 22.515 -9.505 22.515 -9 21 C-6 21 -6 21 -3.8125 23 C-3.214375 23.66 -2.61625 24.32 -2 25 C-1.34 24.67 -0.68 24.34 0 24 C-0.17402344 23.20335937 -0.34804688 22.40671875 -0.52734375 21.5859375 C-1.1082529 17.17870942 -0.86921569 13.04593644 -0.5625 8.625 C-0.51029297 7.79355469 -0.45808594 6.96210938 -0.40429688 6.10546875 C-0.27561269 4.06991892 -0.13864593 2.03489559 0 0 Z " fill="#6B6B6B" transform="translate(433,337)"/>
<path d="M0 0 C0.8353125 1.0209375 0.8353125 1.0209375 1.6875 2.0625 C2.8321875 3.0215625 2.8321875 3.0215625 4 4 C6.70705512 3.85974801 6.70705512 3.85974801 9 3 C9.33 2.01 9.66 1.02 10 0 C12.31 0 14.62 0 17 0 C16.01 1.485 16.01 1.485 15 3 C16.97536745 2.65213292 16.97536745 2.65213292 19 2 C19.33 1.34 19.66 0.68 20 0 C21.32 0 22.64 0 24 0 C22.97431136 2.70408823 22.02736589 3.97795525 19.75 5.8125 C16.35579538 7.27817927 14.57584126 6.60865383 11 6 C9.66150329 6.99307821 8.32848691 7.99357052 7 9 C3.25 9.1875 3.25 9.1875 0 9 C0.99 7.68 1.98 6.36 3 5 C2.01 4.67 1.02 4.34 0 4 C0 2.68 0 1.36 0 0 Z " fill="#6C6C6C" transform="translate(241,468)"/>
<path d="M0 0 C16.83 0 33.66 0 51 0 C51 0.33 51 0.66 51 1 C41.1 1 31.2 1 21 1 C20.67 1.99 20.34 2.98 20 4 C17.9375 4.6875 17.9375 4.6875 16 5 C15.67 4.34 15.34 3.68 15 3 C15.66 2.67 16.32 2.34 17 2 C14.03 1.505 14.03 1.505 11 1 C10.67 2.32 10.34 3.64 10 5 C7.6875 5.6875 7.6875 5.6875 5 6 C3.1875 4.6875 3.1875 4.6875 2 3 C2 2.34 2 1.68 2 1 C1.34 0.67 0.68 0.34 0 0 Z " fill="#545454" transform="translate(240,467)"/>
<path d="M0 0 C0.99 0 1.98 0 3 0 C3 4.95 3 9.9 3 15 C7.95 15 12.9 15 18 15 C18 15.99 18 16.98 18 18 C12.06 18 6.12 18 0 18 C0 12.06 0 6.12 0 0 Z " fill="#7D7D7D" transform="translate(344,555)"/>
<path d="M0 0 C2.84807629 2.5194521 4.77097312 5.16854388 6.75 8.375 C12.9689803 17.89928217 22.24824063 21.54784436 33 24 C33 24.33 33 24.66 33 25 C24.5425391 25.99067872 18.91075698 23.85509086 12 19 C6.36640173 14.41385468 2.73524758 9.7241503 0 3 C0 2.01 0 1.02 0 0 Z " fill="#535353" transform="translate(334,288)"/>
<path d="M0 0 C0.66 0 1.32 0 2 0 C2 2.31 2 4.62 2 7 C6.99275057 5.72278474 9.57611908 3.82669043 13 0 C13.99 0.33 14.98 0.66 16 1 C13.03 3.97 13.03 3.97 10 7 C11.52708963 10.43595166 13.59927045 13.11912454 16 16 C12.78086029 15.64231781 11.893283 14.89054667 9.5625 12.5 C6.87876678 9.88172369 5.6519961 9.31302824 2 9 C2 11.31 2 13.62 2 16 C1.34 16 0.68 16 0 16 C0 10.72 0 5.44 0 0 Z " fill="#565656" transform="translate(279,556)"/>
<path d="M0 0 C5.61 0 11.22 0 17 0 C17 0.33 17 0.66 17 1 C12.05 1 7.1 1 2 1 C2 2.98 2 4.96 2 7 C5.96 7 9.92 7 14 7 C14 7.66 14 8.32 14 9 C10.04 9 6.08 9 2 9 C2 10.98 2 12.96 2 15 C6.95 15 11.9 15 17 15 C17 15.33 17 15.66 17 16 C11.39 16 5.78 16 0 16 C0 10.72 0 5.44 0 0 Z " fill="#4B4B4B" transform="translate(163,556)"/>
<path d="M0 0 C13.2 0 26.4 0 40 0 C40 8.58 40 17.16 40 26 C39.01 26 38.02 26 37 26 C36.505 24.02 36.505 24.02 36 22 C36.66 22 37.32 22 38 22 C38.33 15.07 38.66 8.14 39 1 C26.46 1 13.92 1 1 1 C1 3.64 1 6.28 1 9 C0.67 9 0.34 9 0 9 C0 6.03 0 3.06 0 0 Z " fill="#525252" transform="translate(388,467)"/>
<path d="M0 0 C5.28 0 10.56 0 16 0 C16 0.33 16 0.66 16 1 C11.38 1 6.76 1 2 1 C2 2.98 2 4.96 2 7 C5.96 7 9.92 7 14 7 C14 7.66 14 8.32 14 9 C10.04 9 6.08 9 2 9 C2 10.98 2 12.96 2 15 C6.62 15 11.24 15 16 15 C16 15.33 16 15.66 16 16 C10.72 16 5.44 16 0 16 C0 10.72 0 5.44 0 0 Z " fill="#4F4F4F" transform="translate(425,556)"/>
<path d="M0 0 C5.28 0 10.56 0 16 0 C16 0.33 16 0.66 16 1 C11.38 1 6.76 1 2 1 C2 2.98 2 4.96 2 7 C5.96 7 9.92 7 14 7 C14 7.66 14 8.32 14 9 C10.04 9 6.08 9 2 9 C2 10.98 2 12.96 2 15 C6.62 15 11.24 15 16 15 C16 15.33 16 15.66 16 16 C10.72 16 5.44 16 0 16 C0 10.72 0 5.44 0 0 Z " fill="#4D4D4D" transform="translate(367,556)"/>
<path d="M0 0 C1.81242052 -0.02687279 3.62495233 -0.04633715 5.4375 -0.0625 C6.44683594 -0.07410156 7.45617187 -0.08570313 8.49609375 -0.09765625 C11 0 11 0 12 1 C12 2.98 12 4.96 12 7 C8.04 7 4.08 7 0 7 C0 4.69 0 2.38 0 0 Z " fill="#F9F9F9" transform="translate(518,558)"/>
<path d="M0 0 C3.96 0 7.92 0 12 0 C12 1.98 12 3.96 12 6 C11 7 11 7 8.49609375 7.09765625 C6.98208984 7.08025391 6.98208984 7.08025391 5.4375 7.0625 C4.42558594 7.05347656 3.41367187 7.04445313 2.37109375 7.03515625 C1.58863281 7.02355469 0.80617188 7.01195312 0 7 C0 4.69 0 2.38 0 0 Z " fill="#FAFAFA" transform="translate(495,558)"/>
<path d="M0 0 C1.81242052 -0.02687279 3.62495233 -0.04633715 5.4375 -0.0625 C6.44683594 -0.07410156 7.45617187 -0.08570313 8.49609375 -0.09765625 C11 0 11 0 12 1 C12.125 3.5 12.125 3.5 12 6 C11 7 11 7 8.49609375 7.09765625 C6.98208984 7.08025391 6.98208984 7.08025391 5.4375 7.0625 C4.42558594 7.05347656 3.41367187 7.04445313 2.37109375 7.03515625 C1.58863281 7.02355469 0.80617188 7.01195312 0 7 C0 4.69 0 2.38 0 0 Z " fill="#FAFAFA" transform="translate(583,558)"/>
<path d="M0 0 C1.81242052 -0.02687279 3.62495233 -0.04633715 5.4375 -0.0625 C6.44683594 -0.07410156 7.45617187 -0.08570313 8.49609375 -0.09765625 C11 0 11 0 12 1 C12.125 3.5 12.125 3.5 12 6 C11 7 11 7 8.49609375 7.09765625 C6.98208984 7.08025391 6.98208984 7.08025391 5.4375 7.0625 C4.42558594 7.05347656 3.41367187 7.04445313 2.37109375 7.03515625 C1.58863281 7.02355469 0.80617188 7.01195312 0 7 C0 4.69 0 2.38 0 0 Z " fill="#FAFAFA" transform="translate(259,558)"/>
<path d="M0 0 C5.94 0 11.88 0 18 0 C18.33 1.65 18.66 3.3 19 5 C12.73 5 6.46 5 0 5 C0 3.35 0 1.7 0 0 Z M14 1 C14 1.99 14 2.98 14 4 C15.32 4 16.64 4 18 4 C18 3.01 18 2.02 18 1 C16.68 1 15.36 1 14 1 Z " fill="#535353" transform="translate(437,274)"/>
<path d="M0 0 C5.61 0 11.22 0 17 0 C17 0.66 17 1.32 17 2 C14.69 2 12.38 2 10 2 C10 6.95 10 11.9 10 17 C9.01 17 8.02 17 7 17 C7 12.05 7 7.1 7 2 C4.69 2 2.38 2 0 2 C0 1.34 0 0.68 0 0 Z " fill="#717171" transform="translate(184,556)"/>
<path d="M0 0 C2.43375 -0.061875 4.8675 -0.12375 7.375 -0.1875 C8.52234619 -0.22846802 8.52234619 -0.22846802 9.69287109 -0.27026367 C11.46407019 -0.2922324 13.23492083 -0.14874263 15 0 C17 3 17 3 16.625 5.6875 C16.315625 6.8321875 16.315625 6.8321875 16 8 C15.78601563 7.35546875 15.57203125 6.7109375 15.3515625 6.046875 C14.1526477 3.72160885 14.1526477 3.72160885 11.3984375 3.390625 C9.90183594 3.32101562 9.90183594 3.32101562 8.375 3.25 C6.87066406 3.16492188 6.87066406 3.16492188 5.3359375 3.078125 C4.56507813 3.05234375 3.79421875 3.0265625 3 3 C3 5.31 3 7.62 3 10 C2.67 10 2.34 10 2 10 C2.03255208 7.94921875 2.06510417 5.8984375 2.09765625 3.84765625 C2.20561184 1.98267859 2.20561184 1.98267859 1 1 C1.33 4.63 1.66 8.26 2 12 C4.97 12 7.94 12 11 12 C11 12.33 11 12.66 11 13 C8.36 13 5.72 13 3 13 C3 14.65 3 16.3 3 18 C2.01 18 1.02 18 0 18 C0 12.06 0 6.12 0 0 Z " fill="#A0A0A0" transform="translate(256,555)"/>
<path d="M0 0 C14.85 0 29.7 0 45 0 C45 3.3 45 6.6 45 10 C42.36 10 39.72 10 37 10 C37 9.67 37 9.34 37 9 C38.65 8.67 40.3 8.34 42 8 C42.33 5.69 42.66 3.38 43 1 C29.14 1 15.28 1 1 1 C1 3.64 1 6.28 1 9 C0.67 9 0.34 9 0 9 C0 6.03 0 3.06 0 0 Z " fill="#525252" transform="translate(306,467)"/>
<path d="M0 0 C5.94 0 11.88 0 18 0 C18 0.99 18 1.98 18 3 C15.36 3 12.72 3 10 3 C10 7.62 10 12.24 10 17 C9.34 17 8.68 17 8 17 C8 12.05 8 7.1 8 2 C5.36 2 2.72 2 0 2 C0 1.34 0 0.68 0 0 Z " fill="#6C6C6C" transform="translate(536,555)"/>
<path d="M0 0 C5.61 0 11.22 0 17 0 C17 0.33 17 0.66 17 1 C12.05 1 7.1 1 2 1 C2 2.98 2 4.96 2 7 C6.29 7 10.58 7 15 7 C15 7.66 15 8.32 15 9 C10.71 9 6.42 9 2 9 C2 11.31 2 13.62 2 16 C1.34 16 0.68 16 0 16 C0 10.72 0 5.44 0 0 Z " fill="#565656" transform="translate(314,556)"/>
<path d="M0 0 C4.29 0 8.58 0 13 0 C13.66 1.65 14.32 3.3 15 5 C9.72 5 4.44 5 -1 5 C-1 2 -1 2 0 0 Z " fill="#5F5F5F" transform="translate(432,212)"/>
<path d="M0 0 C0.99386719 0.02707031 1.98773437 0.05414062 3.01171875 0.08203125 C4.15060547 0.13423828 4.15060547 0.13423828 5.3125 0.1875 C5.3125 1.1775 5.3125 2.1675 5.3125 3.1875 C1.6825 3.1875 -1.9475 3.1875 -5.6875 3.1875 C-5.666875 4.30125 -5.64625 5.415 -5.625 6.5625 C-5.6875 10.1875 -5.6875 10.1875 -6.6875 12.1875 C-2.3975 12.1875 1.8925 12.1875 6.3125 12.1875 C6.3125 12.5175 6.3125 12.8475 6.3125 13.1875 C2.3525 13.1875 -1.6075 13.1875 -5.6875 13.1875 C-5.6875 14.8375 -5.6875 16.4875 -5.6875 18.1875 C-6.6775 18.1875 -7.6675 18.1875 -8.6875 18.1875 C-8.7684723 15.74933415 -8.82796972 13.31385616 -8.875 10.875 C-8.90013672 10.18470703 -8.92527344 9.49441406 -8.95117188 8.78320312 C-8.99276216 5.91347366 -9.00623815 3.73021631 -7.53125 1.21875 C-4.93898982 -0.23115824 -2.94843641 -0.10406246 0 0 Z " fill="#9E9E9E" transform="translate(523.6875,554.8125)"/>
<path d="M0 0 C0.99494409 3.09538161 0.85564724 4.89827875 0 8 C0.33 8.33 0.66 8.66 1 9 C1.46666667 15.3 1.46666667 15.3 -0.25 17.875 C-2.16343698 19.10506663 -3.76711635 19.61502006 -6 20 C-6 18.68 -6 17.36 -6 16 C-4.68 15.34 -3.36 14.68 -2 14 C-2 12.35 -2 10.7 -2 9 C-3.32 8.34 -4.64 7.68 -6 7 C-6 6.01 -6 5.02 -6 4 C-5.01 4 -4.02 4 -3 4 C-2.67 3.01 -2.34 2.02 -2 1 C-1.34 0.67 -0.68 0.34 0 0 Z " fill="#6B6B6B" transform="translate(365,457)"/>
<path d="M0 0 C4.95 0 9.9 0 15 0 C15 0.66 15 1.32 15 2 C14.01 2.66 13.02 3.32 12 4 C12 4.33 12 4.66 12 5 C8.04 5 4.08 5 0 5 C0 3.35 0 1.7 0 0 Z " fill="#F0F0F0" transform="translate(427,558)"/>
<path d="M0 0 C2.54820003 1.71222927 2.89314137 3.03615104 3.7265625 5.953125 C3.96890625 6.77039063 4.21125 7.58765625 4.4609375 8.4296875 C4.71617187 9.36941406 4.71617187 9.36941406 4.9765625 10.328125 C3.6565625 10.658125 2.3365625 10.988125 0.9765625 11.328125 C-0.1484375 7.578125 -0.1484375 7.578125 0.9765625 5.328125 C-0.6734375 5.328125 -2.3234375 5.328125 -4.0234375 5.328125 C-4.6834375 6.648125 -5.3434375 7.968125 -6.0234375 9.328125 C-7.1484375 7.578125 -7.1484375 7.578125 -8.0234375 5.328125 C-7.23925162 2.66189301 -6.38677546 1.59457284 -4.1484375 -0.046875 C-2.0234375 -0.671875 -2.0234375 -0.671875 0 0 Z " fill="#6C6C6C" transform="translate(203.0234375,483.671875)"/>
<path d="M0 0 C4 2 4 2 5 4 C3.68 4 2.36 4 1 4 C1 20.5 1 37 1 54 C0.67 54 0.34 54 0 54 C0 36.18 0 18.36 0 0 Z " fill="#D8D8D8" transform="translate(158,454)"/>
<path d="M0 0 C0.33 0 0.66 0 1 0 C1.33 6.27 1.66 12.54 2 19 C2.99 19 3.98 19 5 19 C4.6875 20.9375 4.6875 20.9375 4 23 C3.01 23.33 2.02 23.66 1 24 C-0.5 22.625 -0.5 22.625 -2 21 C-2 20.34 -2 19.68 -2 19 C-5.33537489 20.11179163 -6.63707344 21.47411298 -9 24 C-7.75023244 20.34683329 -7.32901247 19.21934164 -4 17 C-3.01 17 -2.02 17 -1 17 C-0.67 11.39 -0.34 5.78 0 0 Z " fill="#5C5C5C" transform="translate(429,339)"/>
<path d="M0 0 C2.99324263 1.0975223 3.84610901 1.67682892 5.25 4.625 C5.4975 5.40875 5.745 6.1925 6 7 C4.8125 8.5625 4.8125 8.5625 3 10 C0.3125 9.6875 0.3125 9.6875 -2 9 C-2.6875 6.75 -2.6875 6.75 -3 4 C-1.5625 1.6875 -1.5625 1.6875 0 0 Z " fill="#5E5E5E" transform="translate(459,266)"/>
<path d="M0 0 C5.89756525 6.10092957 7.17777752 13.39006066 7.1875 21.625 C7.1401011 23.41712975 7.08307976 25.20916962 7 27 C4.15416616 25.01582141 3.92668208 23.66972991 3.15625 20.19921875 C2.92556233 18.69709733 2.70721938 17.19303834 2.5 15.6875 C1.73544077 10.21759789 0.79370267 5.88121939 -2 1 C-1.34 0.67 -0.68 0.34 0 0 Z " fill="#727272" transform="translate(400,255)"/>
<path d="M0 0 C0 0.33 0 0.66 0 1 C-1.98 1 -3.96 1 -6 1 C-5.938125 2.11375 -5.938125 2.11375 -5.875 3.25 C-6.0058492 6.12868243 -6.73967737 7.47935474 -8 10 C-7.67 10.99 -7.34 11.98 -7 13 C-8.32 13.33 -9.64 13.66 -11 14 C-14 8.25 -14 8.25 -14 6 C-12.68 6 -11.36 6 -10 6 C-10 5.34 -10 4.68 -10 4 C-9.34 4 -8.68 4 -8 4 C-8.66 2.68 -9.32 1.36 -10 0 C-6.7169902 -1.6415049 -3.57454967 -0.51888624 0 0 Z " fill="#5C5C5C" transform="translate(454,476)"/>
<path d="M0 0 C0.33 0 0.66 0 1 0 C1 3.96 1 7.92 1 12 C2.98 12.495 2.98 12.495 5 13 C6 14 6 14 6.1875 16.4375 C6 19 6 19 4 21 C2.68 21 1.36 21 0 21 C0 14.07 0 7.14 0 0 Z " fill="#5B5B5B" transform="translate(358,452)"/>
<path d="M0 0 C5.75 0.75 5.75 0.75 8 3 C4.16393369 6.37939175 0.70270446 8.87258608 -4 11 C-3.52269162 9.5410574 -3.04308958 8.08286504 -2.5625 6.625 C-2.29566406 5.81289063 -2.02882813 5.00078125 -1.75390625 4.1640625 C-1 2 -1 2 0 0 Z " fill="#636363" transform="translate(383,294)"/>
<path d="M0 0 C1.32 3.3 2.64 6.6 4 10 C-1.35414087 8.66146478 -4.91554329 6.62668506 -8 2 C-5.09399739 0.74335022 -3.20395416 0 0 0 Z " fill="#616161" transform="translate(355,294)"/>
<path d="M0 0 C3.3 0 6.6 0 10 0 C10.36547507 6.45672625 10.36547507 6.45672625 8.84375 8.71875 C6.26760037 10.50895567 4.4145692 10.2969848 1.3125 10.1875 C0.31863281 10.16042969 -0.67523438 10.13335938 -1.69921875 10.10546875 C-2.45847656 10.07066406 -3.21773438 10.03585937 -4 10 C-4 9.01 -4 8.02 -4 7 C1.445 6.505 1.445 6.505 7 6 C7.33 4.68 7.66 3.36 8 2 C5.36 2 2.72 2 0 2 C0 1.34 0 0.68 0 0 Z " fill="#767676" transform="translate(409,563)"/>
<path d="M0 0 C2.91952568 0.01748219 5.72297885 0.13944633 8.625 0.375 C9.42679687 0.43171875 10.22859375 0.4884375 11.0546875 0.546875 C13.03715498 0.68847982 15.01869051 0.84302259 17 1 C17 1.33 17 1.66 17 2 C15.1746875 2.0928125 15.1746875 2.0928125 13.3125 2.1875 C10.20121553 2.61778402 8.82701556 3.10673508 6.0625 4.8125 C2.97068387 9.5907613 3.09802501 14.4125745 3 20 C2.67 20 2.34 20 2 20 C1.96261719 18.86820312 1.92523438 17.73640625 1.88671875 16.5703125 C1.82106918 15.08850795 1.75462149 13.60673861 1.6875 12.125 C1.66494141 11.37863281 1.64238281 10.63226563 1.61914062 9.86328125 C1.52188055 7.900396 1.26957706 5.94671678 1 4 C0.01 3.34 -0.98 2.68 -2 2 C-1.34 1.34 -0.68 0.68 0 0 Z " fill="#878787" transform="translate(357,318)"/>
<path d="M0 0 C-0.60990891 3.55780196 -1.5783681 6.6828589 -3 10 C-8.75 9.25 -8.75 9.25 -11 7 C-9.87720538 6.01830524 -8.75168527 5.03972702 -7.625 4.0625 C-6.68527344 3.24458984 -6.68527344 3.24458984 -5.7265625 2.41015625 C-3.71547429 0.76761588 -2.62199195 0 0 0 Z " fill="#606060" transform="translate(358,249)"/>
<path d="M0 0 C2.31 0 4.62 0 7 0 C7 2.64 7 5.28 7 8 C4.69 8 2.38 8 0 8 C0 5.36 0 2.72 0 0 Z " fill="#5F5F5F" transform="translate(372,279)"/>
<path d="M0 0 C2.31 0 4.62 0 7 0 C7 2.64 7 5.28 7 8 C4.69 8 2.38 8 0 8 C0 5.36 0 2.72 0 0 Z " fill="#5F5F5F" transform="translate(359,279)"/>
<path d="M0 0 C2.31 0 4.62 0 7 0 C7 2.64 7 5.28 7 8 C4.69 8 2.38 8 0 8 C0 5.36 0 2.72 0 0 Z " fill="#616161" transform="translate(372,266)"/>
<path d="M0 0 C2.31 0 4.62 0 7 0 C7 2.64 7 5.28 7 8 C4.69 8 2.38 8 0 8 C0 5.36 0 2.72 0 0 Z " fill="#5E5E5E" transform="translate(359,266)"/>
<path d="M0 0 C4.59306496 1.4859916 7.43569245 3.85014682 11 7 C7.93882432 9.62386487 7.26826873 10 3 10 C0 3.375 0 3.375 0 0 Z " fill="#646464" transform="translate(380,249)"/>
<path d="M0 0 C0.33 1.65 0.66 3.3 1 5 C-1.475 6.485 -1.475 6.485 -4 8 C-4.99 7.34 -5.98 6.68 -7 6 C-7.1875 2.875 -7.1875 2.875 -7 0 C-4.3333581 -1.33332095 -2.83319697 -0.67102033 0 0 Z " fill="#5D5D5D" transform="translate(237,473)"/>
<path d="M0 0 C0.33 0 0.66 0 1 0 C1 6.27 1 12.54 1 19 C-3.95 19 -8.9 19 -14 19 C-14 18.67 -14 18.34 -14 18 C-10.7 17.67 -7.4 17.34 -4 17 C-5.32 16.67 -6.64 16.34 -8 16 C-6.75 14.5 -6.75 14.5 -5 13 C-3.68 13 -2.36 13 -1 13 C-0.67 8.71 -0.34 4.42 0 0 Z " fill="#7B7B7B" transform="translate(430,267)"/>
<path d="M0 0 C3.875 0.875 3.875 0.875 5 2 C5.25 4.4375 5.25 4.4375 5 7 C2 9 2 9 -0.1875 8.625 C-0.785625 8.41875 -1.38375 8.2125 -2 8 C-2.6875 6.25 -2.6875 6.25 -3 4 C-1.5625 1.75 -1.5625 1.75 0 0 Z " fill="#5E5E5E" transform="translate(451,205)"/>
<path d="M0 0 C0.99 0 1.98 0 3 0 C3 5.94 3 11.88 3 18 C2.01 18 1.02 18 0 18 C0 12.06 0 6.12 0 0 Z " fill="#7C7C7C" transform="translate(336,555)"/>
<path d="M0 0 C2 2 2 2 2 5 C0.02 5.99 0.02 5.99 -2 7 C-2.33 6.01 -2.66 5.02 -3 4 C-3.99 4.66 -4.98 5.32 -6 6 C-5.67 6.99 -5.34 7.98 -5 9 C-6.32 8.34 -7.64 7.68 -9 7 C-8.6875 4.625 -8.6875 4.625 -8 2 C-4.77626323 -0.14915785 -3.73296326 -0.38286803 0 0 Z " fill="#6C6C6C" transform="translate(561,471)"/>
<path d="M0 0 C1.32 0 2.64 0 4 0 C4 2.97 4 5.94 4 9 C0.66666667 9 -2.66666667 9 -6 9 C-5.67 7.35 -5.34 5.7 -5 4 C-3.35 3.67 -1.7 3.34 0 3 C0.99 4.485 0.99 4.485 2 6 C1.34 4.02 0.68 2.04 0 0 Z " fill="#5C5C5C" transform="translate(349,264)"/>
<path d="M0 0 C0.99 0.33 1.98 0.66 3 1 C3 4.96 3 8.92 3 13 C6.3 13.33 9.6 13.66 13 14 C13 14.33 13 14.66 13 15 C11.04233719 15.08082094 9.08373272 15.13910778 7.125 15.1875 C6.03445313 15.22230469 4.94390625 15.25710938 3.8203125 15.29296875 C2.88960937 15.19628906 1.95890625 15.09960938 1 15 C-1.26166232 11.60750652 -1.24515545 10.34798499 -1.1875 6.375 C-1.18105469 5.39273438 -1.17460938 4.41046875 -1.16796875 3.3984375 C-1 1 -1 1 0 0 Z " fill="#656565" transform="translate(558,557)"/>
<path d="M0 0 C0.33 0.66 0.66 1.32 1 2 C0.67 2.66 0.34 3.32 0 4 C-0.08683445 6.77160626 -0.1155579 9.51774765 -0.09765625 12.2890625 C-0.0962413 13.10748627 -0.09482635 13.92591003 -0.09336853 14.76913452 C-0.0877629 17.38779325 -0.07520948 20.00636704 -0.0625 22.625 C-0.05748572 24.39843627 -0.05292269 26.17187387 -0.04882812 27.9453125 C-0.03779164 32.29690782 -0.02052325 36.6484395 0 41 C-0.66 41 -1.32 41 -2 41 C-2.02505615 40.26362305 -2.0501123 39.52724609 -2.07592773 38.76855469 C-2.19204273 35.42886622 -2.31469918 32.08944903 -2.4375 28.75 C-2.47681641 27.59113281 -2.51613281 26.43226563 -2.55664062 25.23828125 C-2.59853516 24.12324219 -2.64042969 23.00820313 -2.68359375 21.859375 C-2.73858032 20.31975098 -2.73858032 20.31975098 -2.79467773 18.74902344 C-2.91690973 16.05051213 -2.91690973 16.05051213 -3.58227539 13.69628906 C-3.72012451 13.13651367 -3.85797363 12.57673828 -4 12 C-3.67 11.67 -3.34 11.34 -3 11 C-2.63128912 9.34080104 -2.30404678 7.67225729 -2 6 C-1.11111111 1.11111111 -1.11111111 1.11111111 0 0 Z " fill="#595959" transform="translate(368,450)"/>
<path d="M0 0 C0.66 0.33 1.32 0.66 2 1 C2 1.66 2 2.32 2 3 C-5.43659188 5.01670288 -12.31604457 5.2137731 -20 5 C-18.9375 3.5390625 -18.9375 3.5390625 -17 2 C-13.75 1.5234375 -13.75 1.5234375 -10 1.375 C-4.90968268 1.18167508 -4.90968268 1.18167508 0 0 Z " fill="#6F6F6F" transform="translate(381,309)"/>
<path d="M0 0 C-0.66 1.32 -1.32 2.64 -2 4 C-2.66 3.67 -3.32 3.34 -4 3 C-6.11683841 3.89163577 -6.11683841 3.89163577 -8 5 C-8 6.98 -8 8.96 -8 11 C-9.32 10.01 -10.64 9.02 -12 8 C-11.68306247 5.06832781 -11.36774166 3.41017339 -9.375 1.1875 C-6.1686245 -0.41568775 -3.53249148 -0.20379759 0 0 Z " fill="#6C6C6C" transform="translate(373,321)"/>
<path d="M0 0 C4.0629764 0.54652426 6.46693498 1.73478793 9.6875 4.25 C10.45449219 4.83265625 11.22148437 5.4153125 12.01171875 6.015625 C14.21604539 8.21562094 15.05215198 10.06015052 16 13 C12.88103324 11.59368017 10.54597146 9.90245104 8 7.625 C7.3090625 7.00753906 6.618125 6.39007813 5.90625 5.75390625 C3.87974006 3.889351 1.90725053 1.9867193 0 0 Z " fill="#595959" transform="translate(384,243)"/>
<path d="M0 0 C0.99 0 1.98 0 3 0 C2.62875 0.70125 2.2575 1.4025 1.875 2.125 C0.76734541 5.76443651 1.55874591 7.55700411 3 11 C2.34 11.66 1.68 12.32 1 13 C-0.5 12 -0.5 12 -2 10 C-2.39491399 7.20126171 -2.227129 4.86182546 -2 2 C-1.34 1.34 -0.68 0.68 0 0 Z " fill="#6C6C6C" transform="translate(424,485)"/>
<path d="M0 0 C0.66 0 1.32 0 2 0 C2.9765625 1.79036458 3.953125 3.58072917 4.9296875 5.37109375 C5.91410024 7.16618315 5.91410024 7.16618315 8 8 C7.67 8.99 7.34 9.98 7 11 C6.01 11.33 5.02 11.66 4 12 C3.13353333 10.56988027 2.28218171 9.13059381 1.4375 7.6875 C0.72400391 6.48673828 0.72400391 6.48673828 -0.00390625 5.26171875 C-1 3 -1 3 0 0 Z " fill="#5C5C5C" transform="translate(236,465)"/>
<path d="M0 0 C0.66 0 1.32 0 2 0 C0.64891639 3.09010211 -0.79017933 4.96910153 -3.375 7.125 C-4.25285156 7.87136719 -4.25285156 7.87136719 -5.1484375 8.6328125 C-7.06227669 10.0459849 -8.77833174 11.14142701 -11 12 C-11.99 11.67 -12.98 11.34 -14 11 C-13.15695312 10.37351562 -12.31390625 9.74703125 -11.4453125 9.1015625 C-10.33847821 8.27612676 -9.23171086 7.45060124 -8.125 6.625 C-7.56941406 6.2125 -7.01382812 5.8 -6.44140625 5.375 C-4.1649876 3.6745427 -2.0120881 2.0120881 0 0 Z " fill="#5B5B5B" transform="translate(396,299)"/>
<path d="M0 0 C3.6815625 -0.0309375 3.6815625 -0.0309375 7.4375 -0.0625 C8.21150146 -0.071604 8.98550293 -0.08070801 9.78295898 -0.09008789 C11.52221717 -0.09724913 13.26145304 -0.05024702 15 0 C16 1 16 1 16.09765625 2.84765625 C16.06510417 4.8984375 16.03255208 6.94921875 16 9 C15.67 9 15.34 9 15 9 C14.34 6.69 13.68 4.38 13 2 C9.04 1.67 5.08 1.34 1 1 C1 5.95 1 10.9 1 16 C0.67 16 0.34 16 0 16 C0 10.72 0 5.44 0 0 Z " fill="#4A4A4A" transform="translate(493,556)"/>
<path d="M0 0 C0.33 0 0.66 0 1 0 C1 3.63 1 7.26 1 11 C-0.65 11 -2.3 11 -4 11 C-3.56534471 6.47958496 -3.21201178 3.3458456 0 0 Z " fill="#5E5E5E" transform="translate(365,249)"/>
<path d="M0 0 C3.12270126 2.51830747 3.94523098 3.7261549 4.75 7.75 C4.8325 8.8225 4.915 9.895 5 11 C3.35 11 1.7 11 0 11 C0 7.37 0 3.74 0 0 Z " fill="#5C5C5C" transform="translate(372,249)"/>
<path d="M0 0 C0.99 0 1.98 0 3 0 C3.33 1.65 3.66 3.3 4 5 C3.34 5 2.68 5 2 5 C2 8.96 2 12.92 2 17 C1.34 17 0.68 17 0 17 C0 11.39 0 5.78 0 0 Z " fill="#606060" transform="translate(447,555)"/>
<path d="M0 0 C3.63 0.33 7.26 0.66 11 1 C10.67 2.32 10.34 3.64 10 5 C7.6875 5.6875 7.6875 5.6875 5 6 C3.1875 4.6875 3.1875 4.6875 2 3 C2 2.34 2 1.68 2 1 C1.34 0.67 0.68 0.34 0 0 Z " fill="#5F5F5F" transform="translate(240,467)"/>
<path d="M0 0 C1.65 0 3.3 0 5 0 C5 3.63 5 7.26 5 11 C2.46556509 8.46556509 1.25794501 7.19324503 0 4 C0 2.68 0 1.36 0 0 Z " fill="#585858" transform="translate(361,293)"/>
<path d="M0 0 C0.33 0 0.66 0 1 0 C1.33 1.65 1.66 3.3 2 5 C2.33 5 2.66 5 3 5 C3.66 9.62 4.32 14.24 5 19 C4.01 19 3.02 19 2 19 C-0.04898287 14.78103134 -0.21207997 11.34627854 -0.125 6.6875 C-0.10695313 5.43324219 -0.08890625 4.17898438 -0.0703125 2.88671875 C-0.03550781 1.45779297 -0.03550781 1.45779297 0 0 Z " fill="#818181" transform="translate(331,270)"/>
<path d="M0 0 C0.33 0 0.66 0 1 0 C1 5.94 1 11.88 1 18 C3.475 18.99 3.475 18.99 6 20 C6.66 20.99 7.32 21.98 8 23 C1.25 21.375 1.25 21.375 -1 18 C-1.13525391 16.00708008 -1.13525391 16.00708008 -0.9765625 13.76953125 C-0.925 12.96708984 -0.8734375 12.16464844 -0.8203125 11.33789062 C-0.75585938 10.50451172 -0.69140625 9.67113281 -0.625 8.8125 C-0.56828125 7.96751953 -0.5115625 7.12253906 -0.453125 6.25195312 C-0.31179176 4.16728783 -0.1571675 2.08353134 0 0 Z " fill="#858585" transform="translate(433,337)"/>
<path d="M0 0 C1.65 0 3.3 0 5 0 C4.49172849 4.37113496 3.54826592 7.38995662 1 11 C0.67 11 0.34 11 0 11 C0 7.37 0 3.74 0 0 Z " fill="#575757" transform="translate(372,293)"/>
<path d="M0 0 C1.2065625 0.0309375 1.2065625 0.0309375 2.4375 0.0625 C2.1075 0.7225 1.7775 1.3825 1.4375 2.0625 C2.0975 2.68125 2.7575 3.3 3.4375 3.9375 C5.4375 6.0625 5.4375 6.0625 5.4375 8.0625 C4.1175 8.3925 2.7975 8.7225 1.4375 9.0625 C-1.0375 5.1025 -1.0375 5.1025 -3.5625 1.0625 C-2.5625 0.0625 -2.5625 0.0625 0 0 Z " fill="#5C5C5C" transform="translate(465.5625,262.9375)"/>
<path d="M0 0 C1.2065625 0.0309375 1.2065625 0.0309375 2.4375 0.0625 C3.0975 1.7125 3.7575 3.3625 4.4375 5.0625 C1.4675 5.0625 -1.5025 5.0625 -4.5625 5.0625 C-3.31710123 0.08090491 -3.31710123 0.08090491 0 0 Z " fill="#5B5B5B" transform="translate(460.5625,471.9375)"/>
<path d="M0 0 C1.8871875 0.061875 1.8871875 0.061875 3.8125 0.125 C3.8125 0.455 3.8125 0.785 3.8125 1.125 C2.141875 1.24875 2.141875 1.24875 0.4375 1.375 C-1.356875 1.74625 -1.356875 1.74625 -3.1875 2.125 C-4.5044667 4.00870471 -4.5044667 4.00870471 -5.1875 6.125 C-8.1875 8.125 -8.1875 8.125 -10.375 7.75 C-10.973125 7.54375 -11.57125 7.3375 -12.1875 7.125 C-5.08758361 -0.16680602 -5.08758361 -0.16680602 0 0 Z " fill="#757575" transform="translate(268.1875,261.875)"/>
<path d="M0 0 C1.06237789 3.261949 0.89713619 5.42875667 0.125 8.75 C-0.84447507 13.16504189 -1.50096085 17.50864764 -2 22 C-2.33 22 -2.66 22 -3 22 C-3.05420701 19.43721301 -3.09377007 16.87558517 -3.125 14.3125 C-3.15013672 13.2306543 -3.15013672 13.2306543 -3.17578125 12.12695312 C-3.21386939 7.95630171 -2.92422036 4.72728611 -1 1 C-0.67 0.67 -0.34 0.34 0 0 Z " fill="#585858" transform="translate(335,261)"/>
<path d="M0 0 C0 3.61187162 -0.98421186 5.10476598 -2.8125 8.1875 C-3.33457031 9.08855469 -3.85664063 9.98960937 -4.39453125 10.91796875 C-4.92433594 11.60503906 -5.45414062 12.29210937 -6 13 C-6.99 13 -7.98 13 -9 13 C-7.84414715 9.08788267 -6.64465038 6.1254959 -4 3 C-3.67 3.33 -3.34 3.66 -3 4 C-2.01 2.68 -1.02 1.36 0 0 Z " fill="#5C5C5C" transform="translate(335,247)"/>
<path d="M0 0 C1.77007714 -0.08114106 3.54122098 -0.13925505 5.3125 -0.1875 C6.29863281 -0.22230469 7.28476562 -0.25710938 8.30078125 -0.29296875 C11 0 11 0 12.85546875 1.32421875 C14 3 14 3 14 6 C13.01 6 12.02 6 11 6 C11 5.01 11 4.02 11 3 C7.7 3 4.4 3 1 3 C0.67 2.01 0.34 1.02 0 0 Z " fill="#929292" transform="translate(405,555)"/>
<path d="M0 0 C0.99773438 0.02320313 1.99546875 0.04640625 3.0234375 0.0703125 C4.52777344 0.09738281 4.52777344 0.09738281 6.0625 0.125 C6.83335937 0.14820313 7.60421875 0.17140625 8.3984375 0.1953125 C8.3984375 1.1853125 8.3984375 2.1753125 8.3984375 3.1953125 C4.7684375 3.1953125 1.1384375 3.1953125 -2.6015625 3.1953125 C-2.6015625 5.5053125 -2.6015625 7.8153125 -2.6015625 10.1953125 C-2.9315625 10.1953125 -3.2615625 10.1953125 -3.6015625 10.1953125 C-4.578125 4.140625 -4.578125 4.140625 -4.6015625 2.1953125 C-2.6015625 0.1953125 -2.6015625 0.1953125 0 0 Z " fill="#929292" transform="translate(520.6015625,554.8046875)"/>
<path d="M0 0 C6.6 0 13.2 0 20 0 C20 0.33 20 0.66 20 1 C19.25234375 1.03738281 18.5046875 1.07476562 17.734375 1.11328125 C16.74953125 1.17902344 15.7646875 1.24476563 14.75 1.3125 C13.77546875 1.37050781 12.8009375 1.42851562 11.796875 1.48828125 C8.7231451 2.05065362 7.37229063 3.04233539 5 5 C4.34 5 3.68 5 3 5 C3.33 4.01 3.66 3.02 4 2 C2.68 1.34 1.36 0.68 0 0 Z " fill="#565656" transform="translate(479,467)"/>
<path d="M0 0 C4.29 0 8.58 0 13 0 C15 4 15 4 15 7 C11.21503862 5.48601545 10.9927802 4.9855604 9 1 C6.03 1 3.06 1 0 1 C0 0.67 0 0.34 0 0 Z " fill="#646464" transform="translate(495,566)"/>
<path d="M0 0 C0.33 0 0.66 0 1 0 C1.28875 1.0725 1.5775 2.145 1.875 3.25 C2.72820109 6.09400364 3.5636503 8.43508983 5 11 C4.01 11.99 3.02 12.98 2 14 C0 12 0 12 -0.1953125 9.1796875 C-0.17210937 8.08914063 -0.14890625 6.99859375 -0.125 5.875 C-0.10695313 4.77929688 -0.08890625 3.68359375 -0.0703125 2.5546875 C-0.04710937 1.71164062 -0.02390625 0.86859375 0 0 Z " fill="#5A5A5A" transform="translate(360,323)"/>
<path d="M0 0 C2.5 0.9375 2.5 0.9375 5 3 C5.45787911 6.03816258 5.28780586 8.94925785 5 12 C3.02 12 1.04 12 -1 12 C-0.484375 11.608125 0.03125 11.21625 0.5625 10.8125 C2.29310388 9.06357966 2.29310388 9.06357966 1.75 6.5625 C1.5025 5.716875 1.255 4.87125 1 4 C0.814375 3.236875 0.62875 2.47375 0.4375 1.6875 C0.2209375 0.8521875 0.2209375 0.8521875 0 0 Z " fill="#6C6C6C" transform="translate(372,325)"/>
<path d="M0 0 C3.37503669 1.1858237 5.64722731 2.27573689 8 5 C7.38125 5.12375 6.7625 5.2475 6.125 5.375 C3.80879168 5.87197356 3.80879168 5.87197356 2 8 C0.4375 6.8125 0.4375 6.8125 -1 5 C-0.6875 2.3125 -0.6875 2.3125 0 0 Z " fill="#E5E5E5" transform="translate(383,244)"/>
<path d="M0 0 C2.94897721 2.74559948 5.26205705 5.34117274 7 9 C6.57421875 11.15625 6.57421875 11.15625 6 13 C2.57546571 8.60957142 0.41778991 5.7097955 0 0 Z " fill="#606060" transform="translate(334,288)"/>
<path d="M0 0 C0.99 0.495 0.99 0.495 2 1 C2.85056945 4.55692677 3.16909807 6.49270578 2 10 C1.96045766 12.33299825 1.95598268 14.66708189 2 17 C1.34 17 0.68 17 0 17 C0 11.39 0 5.78 0 0 Z " fill="#666666" transform="translate(368,190)"/>
<path d="M0 0 C-0.33 1.98 -0.66 3.96 -1 6 C-1.21398437 5.35546875 -1.42796875 4.7109375 -1.6484375 4.046875 C-2.8473523 1.72160885 -2.8473523 1.72160885 -5.6015625 1.390625 C-7.09816406 1.32101562 -7.09816406 1.32101562 -8.625 1.25 C-10.12933594 1.16492188 -10.12933594 1.16492188 -11.6640625 1.078125 C-12.43492187 1.05234375 -13.20578125 1.0265625 -14 1 C-14 3.31 -14 5.62 -14 8 C-14.33 8 -14.66 8 -15 8 C-15 5.36 -15 2.72 -15 0 C-13.06325815 -0.19517554 -11.12555991 -0.38087873 -9.1875 -0.5625 C-8.10855469 -0.66691406 -7.02960938 -0.77132812 -5.91796875 -0.87890625 C-3 -1 -3 -1 0 0 Z " fill="#878787" transform="translate(273,557)"/>
<path d="M0 0 C0.66 0.33 1.32 0.66 2 1 C-2.02167317 3.96837781 -5.00088076 5.52389341 -10 6 C-10 5.01 -10 4.02 -10 3 C-9.04287109 2.80083984 -9.04287109 2.80083984 -8.06640625 2.59765625 C-7.24011719 2.42105469 -6.41382813 2.24445313 -5.5625 2.0625 C-4.73878906 1.88847656 -3.91507812 1.71445312 -3.06640625 1.53515625 C-1.02338796 1.19247006 -1.02338796 1.19247006 0 0 Z " fill="#5A5A5A" transform="translate(392,314)"/>
<path d="M0 0 C3.72433382 1.2125738 7.37802806 2.50859979 11 4 C10.67 4.99 10.34 5.98 10 7 C6.51329166 5.8905928 3.22515763 4.73662334 0 3 C0 2.01 0 1.02 0 0 Z " fill="#595959" transform="translate(384,233)"/>
<path d="M0 0 C3.70792809 -0.28328822 7.30204313 -0.45269973 11 0 C13.26297338 2.45694253 14 3.6796254 14 7 C10.83884224 5.63016497 10.0072908 5.0109362 8 2 C6.03638136 1.42251197 6.03638136 1.42251197 3.875 1.3125 C2.59625 1.209375 1.3175 1.10625 0 1 C0 0.67 0 0.34 0 0 Z " fill="#696969" transform="translate(583,565)"/>
<path d="M0 0 C2.31 0 4.62 0 7 0 C6.6875 1.875 6.6875 1.875 6 4 C3 6 3 6 0 6 C0 4.02 0 2.04 0 0 Z " fill="#6C6C6C" transform="translate(580,472)"/>
<path d="M0 0 C1.9375 0.375 1.9375 0.375 4 1 C4.33 1.66 4.66 2.32 5 3 C7.32156597 3.40729228 9.6568787 3.74438677 12 4 C12 4.33 12 4.66 12 5 C8.04 5 4.08 5 0 5 C0 3.35 0 1.7 0 0 Z " fill="#ECECEC" transform="translate(317,558)"/>
<path d="M0 0 C3.3 0 6.6 0 10 0 C9.67 0.66 9.34 1.32 9 2 C8.34 1.67 7.68 1.34 7 1 C7 1.66 7 2.32 7 3 C4.69 3.33 2.38 3.66 0 4 C0 2.68 0 1.36 0 0 Z " fill="#676767" transform="translate(437,275)"/>
<path d="M0 0 C0.99 0.99 1.98 1.98 3 3 C-2.75 8 -2.75 8 -5 8 C-5.33 7.01 -5.66 6.02 -6 5 C-5.195625 4.54625 -4.39125 4.0925 -3.5625 3.625 C-0.91143428 2.25274335 -0.91143428 2.25274335 0 0 Z " fill="#6C6C6C" transform="translate(567,481)"/>
<path d="M0 0 C0 2.31 0 4.62 0 7 C-2.31 6.67 -4.62 6.34 -7 6 C-7 5.01 -7 4.02 -7 3 C-1.125 0 -1.125 0 0 0 Z " fill="#6D6D6D" transform="translate(587,459)"/>
<path d="M0 0 C2.31 0 4.62 0 7 0 C5.875 2.5 5.875 2.5 4 5 C0.8125 5.3125 0.8125 5.3125 -2 5 C-1.34 3.35 -0.68 1.7 0 0 Z " fill="#6C6C6C" transform="translate(365,332)"/>
<path d="M0 0 C4.95 1.98 4.95 1.98 10 4 C9.67 4.66 9.34 5.32 9 6 C5.26512223 5.5020163 3.18762365 5.12508244 0 3 C0 2.01 0 1.02 0 0 Z " fill="#585858" transform="translate(347,314)"/>
<path d="M0 0 C3.96 0 7.92 0 12 0 C12.95904856 3.83619425 12.91892116 5.32431536 12 9 C11.67 9 11.34 9 11 9 C10.67 6.36 10.34 3.72 10 1 C6.7 1 3.4 1 0 1 C0 0.67 0 0.34 0 0 Z " fill="#585858" transform="translate(519,556)"/>
<path d="M0 0 C2.03448779 0.41740567 4.05401678 0.90895178 6.0625 1.4375 C7.71958984 1.86869141 7.71958984 1.86869141 9.41015625 2.30859375 C10.26480469 2.53675781 11.11945313 2.76492188 12 3 C12 3.33 12 3.66 12 4 C10.39667209 4.08121924 8.79215974 4.13929134 7.1875 4.1875 C6.29417969 4.22230469 5.40085937 4.25710938 4.48046875 4.29296875 C1.58352485 3.95081002 0.77444972 3.24606427 -1 1 C-0.67 0.67 -0.34 0.34 0 0 Z " fill="#595959" transform="translate(355,309)"/>
<path d="M0 0 C0.99 0.33 1.98 0.66 3 1 C3 4.10551666 2.4606285 5.35261084 1 8 C-1.13562754 5.86437246 -1.63318342 4.93453261 -2 2 C-1.34 1.34 -0.68 0.68 0 0 Z " fill="#6B6B6B" transform="translate(429,212)"/>
<path d="M0 0 C0.33 0 0.66 0 1 0 C1 1.98 1 3.96 1 6 C2.32 5.67 3.64 5.34 5 5 C4.67 5.61875 4.34 6.2375 4 6.875 C2.85806765 8.91018344 2.85806765 8.91018344 3 11 C1.68 11 0.36 11 -1 11 C-0.67 7.37 -0.34 3.74 0 0 Z " fill="#F1F1F1" transform="translate(383,172)"/>
<path d="M0 0 C-1.20381448 2.49361571 -2.45428722 4.68143083 -4 7 C-3.34 7 -2.68 7 -2 7 C-2 7.66 -2 8.32 -2 9 C-3.32 8.34 -4.64 7.68 -6 7 C-5.37162381 3.35541809 -4.14650034 0 0 0 Z " fill="#5C5C5C" transform="translate(422,221)"/>
<path d="M0 0 C1.11375 0.1546875 1.11375 0.1546875 2.25 0.3125 C-0.58430453 3.5667015 -2.43607774 4.8331753 -6.75 5.3125 C-3.42692308 0.38942308 -3.42692308 0.38942308 0 0 Z " fill="#6C6C6C" transform="translate(376.75,383.6875)"/>
<path d="M0 0 C0 1.98 0 3.96 0 6 C-1.65 6 -3.3 6 -5 6 C-4.6875 4.125 -4.6875 4.125 -4 2 C-1 0 -1 0 0 0 Z " fill="#696969" transform="translate(365,266)"/>
<path d="M0 0 C1.32 0 2.64 0 4 0 C3.34 2.31 2.68 4.62 2 7 C1.34 7 0.68 7 0 7 C-0.93423645 3.98968256 -1.04449911 3.13349732 0 0 Z " fill="#6C6C6C" transform="translate(325,260)"/>
<path d="M0 0 C0.66 0 1.32 0 2 0 C2.33 1.98 2.66 3.96 3 6 C1.68 6 0.36 6 -1 6 C-1.042721 4.33388095 -1.04063832 2.66617115 -1 1 C-0.67 0.67 -0.34 0.34 0 0 Z " fill="#5C5C5C" transform="translate(426,215)"/>
<path d="M0 0 C1.65 0 3.3 0 5 0 C4.34 1.32 3.68 2.64 3 4 C1.35 4 -0.3 4 -2 4 C-1.34 2.68 -0.68 1.36 0 0 Z " fill="#5F5F5F" transform="translate(345,472)"/>
<path d="M0 0 C1.53202706 0.25195908 3.05257128 0.57596777 4.5625 0.9375 C5.38878906 1.13214844 6.21507812 1.32679688 7.06640625 1.52734375 C8.02353516 1.76130859 8.02353516 1.76130859 9 2 C8.34 2.66 7.68 3.32 7 4 C1.54545455 3.54545455 1.54545455 3.54545455 -1 1 C-0.67 0.67 -0.34 0.34 0 0 Z " fill="#666666" transform="translate(377,240)"/>
<path d="M0 0 C0.99 0.33 1.98 0.66 3 1 C1.25 4.875 1.25 4.875 -1 6 C-1.66 5.67 -2.32 5.34 -3 5 C-1.125 1.125 -1.125 1.125 0 0 Z " fill="#666666" transform="translate(421,223)"/>
<path d="M0 0 C0.66 0.66 1.32 1.32 2 2 C3.98821313 2.39764263 5.98944339 2.73775349 8 3 C8 3.99 8 4.98 8 6 C5.125 6.125 5.125 6.125 2 6 C1.34 5.34 0.68 4.68 0 4 C0 2.68 0 1.36 0 0 Z " fill="#818181" transform="translate(207,567)"/>
<path d="M0 0 C0.33 0 0.66 0 1 0 C1 2.64 1 5.28 1 8 C0.01 8 -0.98 8 -2 8 C-2.33 6.68 -2.66 5.36 -3 4 C-2.34 4 -1.68 4 -1 4 C-0.67 2.68 -0.34 1.36 0 0 Z " fill="#5A5A5A" transform="translate(427,485)"/>
<path d="M0 0 C0.99 0.33 1.98 0.66 3 1 C-0.465 3.97 -0.465 3.97 -4 7 C-4.66 6.67 -5.32 6.34 -6 6 C-2.25 1.125 -2.25 1.125 0 0 Z " fill="#5C5C5C" transform="translate(273,327)"/>
<path d="M0 0 C0.99 0.66 1.98 1.32 3 2 C3 2.66 3 3.32 3 4 C-0.05263664 4.98120464 -1.94736336 4.98120464 -5 4 C-3.35 2.68 -1.7 1.36 0 0 Z " fill="#6E6E6E" transform="translate(394,311)"/>
<path d="M0 0 C1.32 0 2.64 0 4 0 C4 2.97 4 5.94 4 9 C2.68 8.67 1.36 8.34 0 8 C0.99 8 1.98 8 3 8 C2.01 5.36 1.02 2.72 0 0 Z " fill="#535353" transform="translate(349,264)"/>
<path d="M0 0 C1.11375 0.556875 1.11375 0.556875 2.25 1.125 C0.5625 2.25 0.5625 2.25 -1.75 3.125 C-4.5 2.25 -4.5 2.25 -6.75 1.125 C-4.02098495 -0.69434337 -3.21400584 -1.02263822 0 0 Z " fill="#6F6F6F" transform="translate(359.75,231.875)"/>
<path d="M0 0 C1.32 0.66 2.64 1.32 4 2 C3.34 3.32 2.68 4.64 2 6 C1.34 6 0.68 6 0 6 C-0.38218767 4.34385343 -0.71395102 2.67542976 -1 1 C-0.67 0.67 -0.34 0.34 0 0 Z " fill="#F7F7F7" transform="translate(498,724)"/>
<path d="M0 0 C1.32 0.66 2.64 1.32 4 2 C3.34 3.32 2.68 4.64 2 6 C1.34 6 0.68 6 0 6 C-0.38218767 4.34385343 -0.71395102 2.67542976 -1 1 C-0.67 0.67 -0.34 0.34 0 0 Z " fill="#F7F7F7" transform="translate(48,724)"/>
<path d="M0 0 C0 0.99 0 1.98 0 3 C-3 5.1875 -3 5.1875 -6 7 C-6.66 6.34 -7.32 5.68 -8 5 C-4.04 2.525 -4.04 2.525 0 0 Z " fill="#F5F5F5" transform="translate(615,653)"/>
<path d="M0 0 C0 0.99 0 1.98 0 3 C-3 5.1875 -3 5.1875 -6 7 C-6.66 6.34 -7.32 5.68 -8 5 C-4.04 2.525 -4.04 2.525 0 0 Z " fill="#F5F5F5" transform="translate(165,653)"/>
<path d="M0 0 C-1.125 1.5 -1.125 1.5 -3 3 C-6.1875 3.1875 -6.1875 3.1875 -9 3 C-8.67 2.01 -8.34 1.02 -8 0 C-4.71303767 -0.79953138 -3.28976808 -1.09658936 0 0 Z " fill="#878787" transform="translate(228,570)"/>
<path d="M0 0 C0.66 0 1.32 0 2 0 C0.70700306 2.88437779 -0.65941363 4.87219421 -3 7 C-3.66 6.67 -4.32 6.34 -5 6 C-3.38405168 3.95880212 -1.7143618 1.95927063 0 0 Z " fill="#4C4C4C" transform="translate(396,299)"/>
</svg>
