<svg version="1.1" id="Layer_1" xmlns="http://www.w3.org/2000/svg" xmlns:xlink="http://www.w3.org/1999/xlink" x="0px" y="0px"
	 width="100%" viewBox="0 0 752 720" enable-background="new 0 0 752 720" xml:space="preserve">
<path fill="#000000" opacity="1.000000" stroke="none" 
	d="
M306.102509,334.897095 
	C303.618469,332.404694 301.463440,330.076050 299.130249,327.942230 
	C296.859894,325.865845 297.088562,324.224426 299.269012,322.180267 
	C303.277649,318.422150 307.004791,314.364624 310.995331,310.586121 
	C313.549011,308.168121 314.155243,305.853119 312.185852,302.696960 
	C309.354095,298.158783 307.326294,293.186279 305.978668,288.019470 
	C304.847137,283.681213 302.234772,282.146423 297.946320,282.323700 
	C293.122925,282.523132 288.282135,282.270782 283.454498,282.409393 
	C280.171204,282.503632 278.544922,281.445557 278.630707,277.858734 
	C278.802002,270.698700 278.769440,263.530457 278.652802,256.368347 
	C278.600098,253.131836 280.020782,251.846878 283.132965,251.882156 
	C288.463623,251.942612 293.799194,251.772461 299.125641,251.933365 
	C302.632477,252.039291 304.758698,250.824432 305.687744,247.281799 
	C307.172485,241.620132 309.477325,236.248398 312.484619,231.229462 
	C314.058533,228.602692 313.582977,226.577560 311.541351,224.553955 
	C307.400299,220.449493 303.357269,216.245514 299.187256,212.171158 
	C297.106384,210.138046 296.940826,208.461349 299.160614,206.326233 
	C304.442505,201.245804 309.612793,196.045624 314.717438,190.786316 
	C317.007141,188.427246 318.787384,188.688019 320.941589,190.993134 
	C324.579956,194.886337 328.505798,198.510315 332.160675,202.388916 
	C334.592316,204.969421 337.109131,205.424438 340.191193,203.704987 
	C345.157623,200.934280 350.447845,198.911835 355.901215,197.341705 
	C359.279114,196.369156 360.773499,194.284454 360.692505,190.748672 
	C360.570496,185.420303 360.793457,180.083450 360.644928,174.756485 
	C360.559021,171.674606 361.580963,170.018814 364.834229,170.033096 
	C372.164368,170.065277 379.494720,170.055008 386.824921,170.034958 
	C390.098694,170.026016 391.125854,171.856018 391.090057,174.840042 
	C391.026154,180.170410 391.178345,185.504288 391.061890,190.832809 
	C390.984314,194.385696 392.517761,196.415802 395.926666,197.331726 
	C401.091766,198.719498 406.042297,200.718872 410.655457,203.425339 
	C414.319000,205.574692 417.127563,204.810577 419.897736,201.756958 
	C423.252258,198.059204 427.010681,194.729187 430.391968,191.053894 
	C432.776886,188.461655 434.585175,188.656708 436.945465,191.139908 
	C441.879272,196.330643 446.971527,201.377686 452.146729,206.329010 
	C454.508881,208.588974 454.423309,210.392990 452.150604,212.582718 
	C448.313202,216.280090 444.680817,220.191360 440.817932,223.860794 
	C438.273285,226.278030 437.721344,228.662399 439.512268,231.825500 
	C442.140778,236.467941 444.324280,241.353531 445.574432,246.566650 
	C446.564331,250.694412 449.055145,252.163589 453.185730,251.975342 
	C458.173035,251.748032 463.181061,252.022278 468.177124,251.925354 
	C471.816986,251.854752 473.229309,253.495316 473.152557,257.079803 
	C473.009857,263.741028 472.945404,270.412201 473.153778,277.069702 
	C473.286163,281.300629 471.467987,282.609192 467.468781,282.418335 
	C462.482300,282.180359 457.473480,282.455841 452.477600,282.352295 
	C449.230469,282.285004 447.091064,283.413055 446.122253,286.693176 
	C444.419708,292.457245 442.042236,297.961487 439.170013,303.239166 
	C437.538055,306.237854 438.313538,308.634735 440.693085,310.802155 
	C445.480194,315.162445 450.237457,319.555511 455.189178,324.102386 
	C450.789062,330.257111 446.141174,334.268677 441.763641,338.494171 
	C433.552612,346.420044 433.501587,346.367249 425.496948,338.430054 
	C416.026520,329.039459 416.026459,329.039337 403.904816,334.346680 
	C403.599670,334.480255 403.302521,334.632263 402.996368,334.763336 
	C391.016327,339.892426 391.030273,339.892242 391.036346,353.247162 
	C391.042480,366.692230 391.721436,364.122498 379.780090,364.329041 
	C374.783539,364.415466 369.782471,364.252808 364.786499,364.354462 
	C361.817261,364.414886 360.580658,363.207184 360.649048,360.209503 
	C360.770630,354.880920 360.546967,349.542969 360.727142,344.217712 
	C360.853729,340.475708 359.356537,338.234985 355.783203,337.194641 
	C350.332825,335.607819 345.050262,333.577850 340.141022,330.688965 
	C337.229614,328.975739 334.936188,329.554901 332.644165,331.996277 
	C328.884338,336.001068 324.820160,339.718933 321.025848,343.692932 
	C318.804535,346.019409 316.996643,346.056702 314.802704,343.656464 
	C312.108063,340.708405 309.180450,337.973328 306.102509,334.897095 
M311.003601,284.594696 
	C320.259308,318.549927 352.796814,339.381531 387.573547,333.617340 
	C435.637299,325.650848 459.321503,267.511078 430.518768,228.293945 
	C409.933044,200.264923 376.380737,193.686661 349.078461,205.583206 
	C318.156403,219.057007 302.874878,251.202393 311.003601,284.594696 
z"/>
<path fill="#000000" opacity="1.000000" stroke="none" 
	d="
M514.854248,527.760864 
	C510.292877,529.548096 505.945129,528.827515 501.645264,528.687988 
	C498.976440,528.601440 497.852203,526.783386 497.846771,524.320618 
	C497.812164,508.655334 497.813141,492.989899 497.834473,477.324585 
	C497.838318,474.491791 499.409729,473.005035 502.197479,472.954773 
	C506.028473,472.885651 509.862427,472.886627 513.693542,472.951843 
	C516.671509,473.002502 518.504456,474.858704 520.082764,477.163177 
	C524.884033,484.173492 529.736755,491.148590 534.590881,498.122498 
	C535.516296,499.452087 536.539551,500.713501 538.669800,501.775085 
	C538.669800,494.537384 538.653015,487.299591 538.674805,480.061951 
	C538.694763,473.399689 539.185181,472.917664 545.728760,472.855865 
	C556.892395,472.750427 556.927246,472.750305 556.974304,484.129486 
	C557.026733,496.795258 557.054382,509.461487 556.997864,522.127075 
	C556.971985,527.931030 556.007690,528.280212 550.332214,529.000183 
	C541.167786,530.162842 534.855957,527.248047 530.359619,518.867737 
	C526.687805,512.024109 521.716064,505.877930 516.258240,499.577606 
	C516.258240,506.622986 516.299866,513.668762 516.234436,520.713501 
	C516.213135,522.997253 516.779236,525.415283 514.854248,527.760864 
z"/>
<path fill="#000000" opacity="1.000000" stroke="none" 
	d="
M193.609924,491.002289 
	C193.621674,486.176331 193.679733,481.849335 193.631271,477.523560 
	C193.595993,474.374634 195.191757,472.932892 198.201019,472.903961 
	C201.860977,472.868744 205.521896,472.879639 209.181900,472.918396 
	C212.653473,472.955139 214.435211,475.406189 216.155243,477.917053 
	C221.591476,485.852814 227.028030,493.788330 232.466888,501.727478 
	C234.458771,500.759888 233.752777,499.251099 233.779465,498.099030 
	C233.879669,493.774780 233.843674,489.446747 233.817856,485.120361 
	C233.739975,472.069031 233.166748,472.713928 247.628281,472.899567 
	C250.622345,472.938019 252.254135,474.439972 252.252548,477.540680 
	C252.244537,493.182556 252.243607,508.824432 252.244614,524.466309 
	C252.244781,527.078125 250.926392,528.602112 248.356476,528.691528 
	C244.203720,528.836121 240.043091,528.833984 235.887238,528.780884 
	C233.262070,528.747437 231.724930,526.930359 230.372131,524.969727 
	C225.931854,518.534546 221.510925,512.086121 217.073730,505.648773 
	C215.704407,503.662262 214.306808,501.695251 211.862076,500.088226 
	C211.862076,507.336365 211.938446,514.585571 211.838684,521.832336 
	C211.754120,527.974182 210.953888,528.692871 204.907791,528.882935 
	C193.602768,529.238220 193.603226,529.238220 193.606049,517.960449 
	C193.608246,509.140900 193.609131,500.321320 193.609924,491.002289 
z"/>
<path fill="#000000" opacity="1.000000" stroke="none" 
	d="
M366.375488,509.097687 
	C361.774628,481.747345 379.165100,468.758026 405.355408,472.062103 
	C411.398926,472.824524 416.984222,475.025299 421.518433,479.306854 
	C423.987305,481.638184 425.849121,484.365356 426.302246,487.850189 
	C426.781342,491.534454 425.553162,493.552673 421.441376,493.432983 
	C415.701080,493.265961 410.164001,494.097504 405.780273,488.291077 
	C402.993927,484.600372 397.733978,484.839020 393.181946,486.367462 
	C387.269653,488.352631 385.250305,493.242523 384.553497,498.734222 
	C383.804749,504.635071 385.001556,510.308289 390.108521,513.929321 
	C394.663605,517.158936 399.902405,516.609619 404.922089,514.566406 
	C406.329590,513.993469 407.467438,512.987183 407.790405,511.363831 
	C407.323700,510.062927 406.172302,510.362640 405.251892,510.290100 
	C398.438538,509.753418 397.653442,508.780548 397.832428,502.120850 
	C397.932343,498.403442 399.396698,496.603088 403.250427,496.668213 
	C409.747467,496.778015 416.249786,496.791046 422.745880,496.653931 
	C426.440704,496.575958 427.669434,498.443268 427.963593,501.800720 
	C429.316406,517.241699 418.594421,529.020264 401.854980,530.265442 
	C396.682617,530.650085 391.525085,530.324158 386.492889,529.004883 
	C376.162598,526.296814 369.143646,520.131592 366.375488,509.097687 
z"/>
<path fill="#000000" opacity="1.000000" stroke="none" 
	d="
M453.007202,472.812256 
	C463.672211,472.822266 473.839142,472.771698 484.004669,472.866943 
	C489.609253,472.919403 490.343109,473.920654 490.296295,480.469788 
	C490.253143,486.506989 489.559448,487.305176 483.857666,487.344421 
	C475.358093,487.402924 466.857910,487.384003 458.358002,487.374603 
	C456.219452,487.372253 454.260712,487.458344 454.292572,490.401855 
	C454.322815,493.196350 456.103333,493.593781 458.326141,493.591736 
	C464.159088,493.586365 469.999634,493.813599 475.822601,493.582275 
	C480.358185,493.402039 481.639648,495.497650 481.446503,499.632111 
	C481.260315,503.617157 482.297211,508.035706 475.909668,507.871521 
	C470.247406,507.725922 464.577454,507.908966 458.911896,507.849731 
	C456.455597,507.824036 454.220306,507.548889 454.262634,511.212006 
	C454.304504,514.838501 456.629425,514.613831 459.020538,514.614990 
	C467.520416,514.619019 476.023315,514.763672 484.518982,514.577759 
	C488.930267,514.481201 490.367462,516.423401 490.344604,520.593445 
	C490.307159,527.419312 489.694611,528.839111 484.687775,528.890076 
	C470.189606,529.037720 455.688995,528.941406 441.189362,528.951965 
	C437.712006,528.954529 435.941467,527.284058 435.943451,523.771057 
	C435.951965,508.604980 435.947784,493.438873 435.959229,478.272797 
	C435.962006,474.595825 437.734039,472.755920 441.509094,472.832458 
	C445.173950,472.906799 448.841919,472.825531 453.007202,472.812256 
z"/>
<path fill="#000000" opacity="1.000000" stroke="none" 
	d="
M545.119568,286.329956 
	C531.136169,293.982300 518.127686,289.924561 511.678436,275.954620 
	C510.319519,273.011047 508.521393,272.144928 505.525391,272.209656 
	C499.043427,272.349640 492.554138,272.145813 486.072021,272.282074 
	C482.474091,272.357666 480.994720,270.893494 480.927643,267.288361 
	C480.854706,263.366730 482.847351,262.587128 486.234985,262.665863 
	C492.882599,262.820404 499.536896,262.662323 506.187714,262.716858 
	C508.586578,262.736542 510.018127,262.050537 511.080231,259.562164 
	C515.806763,248.488464 522.930786,244.166351 534.875366,244.663727 
	C543.717957,245.031937 551.382324,251.304398 554.429565,260.666626 
	C557.498352,270.095001 554.504761,278.562653 545.119568,286.329956 
z"/>
<path fill="#000000" opacity="1.000000" stroke="none" 
	d="
M270.177246,265.183685 
	C271.114532,270.548828 269.363525,272.660034 264.109344,272.323486 
	C258.142853,271.941284 252.128754,272.372650 246.142731,272.197723 
	C242.902267,272.103027 241.155991,273.071686 239.819702,276.316132 
	C236.003708,285.581299 225.621231,291.498474 216.638763,290.097534 
	C204.770721,288.246521 197.751877,280.968201 196.235397,268.939697 
	C195.042496,259.477692 200.968155,249.906525 210.433472,246.006897 
	C221.420670,241.480255 234.801422,246.569931 239.326569,257.649261 
	C241.072128,261.923096 243.376862,262.979309 247.534988,262.790283 
	C253.679626,262.510986 259.847137,262.702423 266.004395,262.755127 
	C267.627899,262.769043 269.451111,262.593628 270.177246,265.183685 
z"/>
<path fill="#000000" opacity="1.000000" stroke="none" 
	d="
M361.837524,442.288208 
	C347.857361,429.271729 350.544495,410.777863 367.384277,402.929962 
	C370.178711,401.627716 370.945282,399.908936 370.913605,397.149872 
	C370.839111,390.665466 370.968536,384.178741 370.904602,377.694061 
	C370.871155,374.297455 371.915161,372.569153 375.782837,372.555786 
	C379.788483,372.541931 380.468781,374.428436 380.397278,377.781982 
	C380.262543,384.098022 380.518402,390.423157 380.344116,396.737152 
	C380.253021,400.037354 381.460968,401.733826 384.547058,403.099792 
	C394.673248,407.581787 399.571777,416.676483 398.303925,427.736450 
	C397.281281,436.657684 389.391479,444.654175 379.561584,446.719543 
	C373.086761,448.079987 367.438171,445.997711 361.837524,442.288208 
z"/>
<path fill="#000000" opacity="1.000000" stroke="none" 
	d="
M380.350586,144.046539 
	C380.341583,149.037537 380.258942,153.538071 380.350403,158.035080 
	C380.413452,161.136597 378.804199,162.077927 376.003296,162.092941 
	C373.184570,162.108047 370.962708,161.579102 370.952209,158.132782 
	C370.932892,151.800858 370.719849,145.460098 370.988281,139.140060 
	C371.164673,134.986526 370.041016,132.622879 365.899597,130.762772 
	C356.146179,126.382050 351.225800,115.687149 353.455475,105.488770 
	C355.633606,95.526123 364.362030,88.068031 374.291107,87.685555 
	C385.482574,87.254448 394.544617,93.645546 397.675354,104.177643 
	C400.702423,114.360893 396.373322,125.565613 386.296722,130.274490 
	C381.177185,132.666870 379.643036,135.545898 380.337555,140.557877 
	C380.473450,141.538574 380.353210,142.554779 380.350586,144.046539 
z"/>
<path fill="#000000" opacity="1.000000" stroke="none" 
	d="
M315.333771,478.174316 
	C315.325745,487.349426 315.325745,487.352905 306.424622,487.363800 
	C299.602173,487.372162 292.777008,487.485535 285.958405,487.324799 
	C282.518188,487.243744 281.244141,488.545868 281.221558,491.990967 
	C281.198730,495.474731 282.535095,496.747253 285.947357,496.657013 
	C291.600739,496.507416 297.265259,496.765411 302.917755,496.600037 
	C307.077057,496.478271 308.634552,498.363861 308.402710,502.331543 
	C308.178406,506.170135 309.527557,510.859039 303.122040,510.848480 
	C297.464752,510.839172 291.804535,510.998047 286.151062,510.860077 
	C282.481812,510.770569 281.282043,512.287537 281.227234,515.913208 
	C281.034180,528.678772 280.922150,528.621765 268.384460,528.687927 
	C264.683380,528.707458 262.798279,527.329285 262.812408,523.453735 
	C262.867645,508.311523 262.860107,493.168976 262.827637,478.026642 
	C262.819946,474.435120 264.645111,472.878387 268.063812,472.876221 
	C282.207642,472.867340 296.351501,472.868500 310.495331,472.861786 
	C313.740265,472.860260 315.508575,474.313232 315.333771,478.174316 
z"/>
<path fill="#000000" opacity="1.000000" stroke="none" 
	d="
M239.547119,345.079895 
	C245.460754,346.934692 249.654419,350.314240 251.982117,355.643921 
	C253.093948,358.189636 254.791901,359.096771 257.391479,359.097290 
	C263.047211,359.098358 268.705414,359.121796 274.357513,359.298798 
	C276.841949,359.376648 278.361176,357.980988 279.907837,356.441467 
	C284.860413,351.511749 289.915558,346.679657 294.726898,341.615845 
	C297.098236,339.120117 298.772736,339.060425 301.261688,341.550140 
	C303.822113,344.111359 304.075226,345.870392 301.310669,348.469727 
	C295.737732,353.709564 290.396973,359.200775 285.058929,364.684174 
	C282.077515,367.746826 278.561646,369.115692 274.326385,369.047760 
	C269.003357,368.962341 263.675018,369.138916 258.354492,368.996460 
	C255.198502,368.911957 253.283096,369.872345 251.726364,372.922882 
	C247.329712,381.538513 238.178879,385.613098 229.619339,383.297607 
	C219.900299,380.668457 214.271286,372.803680 214.689941,362.438385 
	C215.049133,353.545654 221.728958,346.444641 231.288116,344.476776 
	C234.038544,343.910553 236.561234,344.536316 239.547119,345.079895 
z"/>
<path fill="#000000" opacity="1.000000" stroke="none" 
	d="
M267.396362,141.711700 
	C259.583160,135.029633 257.210907,125.482941 261.085754,117.258217 
	C264.746735,109.487411 273.638123,104.600700 281.523895,106.025383 
	C291.552612,107.837227 298.008911,114.499214 298.653503,124.636147 
	C299.171570,132.782913 295.688965,139.352783 288.256409,143.007660 
	C284.824921,144.695068 284.270691,146.847229 283.771088,150.300858 
	C281.881195,163.365692 285.981781,173.528290 296.620209,181.381516 
	C299.464142,183.480896 302.227112,186.061630 304.052032,189.638931 
	C302.927734,190.893906 301.783997,192.080673 300.743500,193.351929 
	C298.921783,195.577606 297.295135,195.303848 295.380219,193.346634 
	C289.445618,187.280930 283.433136,181.290649 277.398285,175.324295 
	C275.358429,173.307587 274.566895,170.954041 274.625366,168.129028 
	C274.718292,163.637726 274.283936,159.106293 274.733948,154.658752 
	C275.348480,148.585144 274.082611,143.943298 267.396362,141.711700 
z"/>
<path fill="#000000" opacity="1.000000" stroke="none" 
	d="
M537.197754,170.072906 
	C536.389221,180.971588 530.643982,187.853531 520.962158,189.962830 
	C512.172607,191.877747 504.365143,187.787506 499.459381,178.457916 
	C498.306366,176.265106 496.927979,175.224716 494.428802,175.272568 
	C488.775391,175.380844 483.115967,175.405838 477.464111,175.262283 
	C474.806396,175.194778 473.150940,176.601120 471.479156,178.285721 
	C466.441040,183.362457 461.294403,188.333923 456.344421,193.494522 
	C454.179108,195.751938 452.559174,195.536072 450.595795,193.338577 
	C448.776337,191.302170 446.619843,189.694077 449.638489,186.807068 
	C455.646240,181.061172 461.451599,175.103592 467.340912,169.233780 
	C469.856354,166.726669 472.978577,165.841949 476.429749,165.833694 
	C482.251556,165.819763 488.073395,165.786652 493.895172,165.796890 
	C496.156799,165.800873 497.842377,165.442429 499.114380,163.005066 
	C503.835724,153.958130 511.474396,149.607040 519.498596,150.941635 
	C529.756470,152.647766 535.473694,158.691589 537.197754,170.072906 
z"/>
<path fill="#000000" opacity="1.000000" stroke="none" 
	d="
M477.273010,379.902100 
	C476.452240,386.202362 478.111084,390.057312 483.906860,393.070801 
	C491.145782,396.834625 493.964630,406.749634 491.482178,414.509674 
	C488.788757,422.929382 481.059601,428.556641 472.289215,428.483246 
	C463.374695,428.408630 456.316864,422.907410 453.641388,413.948242 
	C451.267883,406.000275 454.187592,396.526764 461.595215,392.772064 
	C467.129486,389.966888 467.409607,386.193542 467.929626,380.941223 
	C469.003967,370.089905 466.205200,361.499481 457.182190,355.041718 
	C454.776825,353.320190 452.954834,350.804657 450.732910,348.800049 
	C448.311554,346.615509 447.257599,344.837677 450.109436,341.861389 
	C453.095612,338.744965 454.879761,339.712646 457.326080,342.303284 
	C461.894897,347.141602 466.510101,351.973358 471.485474,356.379303 
	C475.844849,360.239716 477.867798,364.641785 477.310272,370.435974 
	C477.024689,373.404144 477.267792,376.423157 477.273010,379.902100 
z"/>
<path fill="#000000" opacity="1.000000" stroke="none" 
	d="
M350.863861,509.310486 
	C341.910309,509.304962 333.438080,509.180359 324.971069,509.337891 
	C320.152008,509.427551 319.703674,506.550903 319.688538,502.843292 
	C319.673218,499.080139 319.741058,495.698029 324.892395,495.730469 
	C334.358490,495.790039 343.825500,495.699371 353.291595,495.759583 
	C358.786102,495.794525 360.046692,497.143250 360.037445,502.543213 
	C360.028076,508.011475 358.912872,509.138672 353.340240,509.299530 
	C352.676422,509.318726 352.011658,509.306946 350.863861,509.310486 
z"/>
<path fill="#000000" opacity="1.000000" stroke="none" 
	d="
M265.548248,586.391113 
	C263.405518,591.922241 262.272705,592.563416 260.543182,589.489380 
	C260.061279,588.632874 259.889801,587.607544 259.490387,586.697144 
	C259.109833,585.829773 259.045990,584.717651 257.823608,584.315491 
	C255.407028,585.900024 256.340271,589.794312 253.303406,591.071411 
	C250.565430,590.191772 250.655823,587.483521 249.807663,585.468384 
	C248.261032,581.793701 246.876312,578.047363 245.536560,574.290710 
	C244.843475,572.347351 243.654358,571.841614 241.699051,572.182922 
	C239.792480,572.515747 239.273285,573.663147 239.269958,575.338196 
	C239.263046,578.830872 239.319214,582.325684 239.210648,585.815308 
	C239.157196,587.532959 239.763458,589.526184 237.853348,590.766418 
	C235.933777,590.535156 236.007416,589.028320 235.937408,587.781616 
	C235.816345,585.625488 235.897583,583.458801 235.850586,581.297546 
	C235.758011,577.037598 237.266144,572.085144 230.735886,570.146545 
	C236.251572,568.532593 242.074738,567.390076 246.289200,570.216248 
	C250.582642,573.095337 250.192474,579.792053 253.036957,584.468506 
	C257.568329,579.938904 254.725540,574.994446 253.632629,570.105835 
	C256.396545,569.480408 258.862213,574.839966 261.082825,568.472900 
	C261.551300,574.702698 257.456207,579.848877 262.490295,584.286987 
	C265.782013,580.075623 265.537720,573.852356 270.156708,568.479309 
	C271.517426,576.029602 266.915222,580.632568 265.548248,586.391113 
z"/>
<path fill="#000000" opacity="1.000000" stroke="none" 
	d="
M440.671204,584.313232 
	C439.000092,581.850037 437.523560,579.690002 435.727783,577.062927 
	C433.705719,581.880615 436.604401,586.866577 432.779327,591.912659 
	C430.818085,583.936340 431.949951,576.989990 431.786499,568.798218 
	C438.148529,572.978699 439.802032,579.392029 444.424011,583.600830 
	C445.921814,578.917847 443.634308,574.040283 447.096893,568.600769 
	C449.020172,576.835693 448.312317,583.762451 447.791473,591.050537 
	C443.364014,590.483032 443.046082,586.578186 440.671204,584.313232 
z"/>
<path fill="#000000" opacity="1.000000" stroke="none" 
	d="
M528.338806,590.626282 
	C519.098938,592.862366 512.618042,589.292969 511.752441,581.851624 
	C511.095001,576.200012 513.801392,571.802856 519.189331,569.768677 
	C524.317078,567.832703 529.627686,569.529053 532.775024,574.108337 
	C535.754944,578.444031 535.223328,584.278625 531.402466,588.304810 
	C530.614807,589.134827 529.593567,589.743164 528.338806,590.626282 
M531.420959,581.918518 
	C532.184937,577.745972 530.315735,574.746826 526.818359,572.927063 
	C523.829102,571.371643 520.627197,571.729431 517.974121,573.920410 
	C515.426758,576.024109 513.818726,578.748352 514.874451,582.191284 
	C516.031311,585.964050 518.456543,588.541016 522.643860,588.754700 
	C527.052063,588.979675 529.760254,586.660400 531.420959,581.918518 
z"/>
<path fill="#000000" opacity="1.000000" stroke="none" 
	d="
M475.834656,586.178040 
	C475.442200,582.621826 473.188660,582.274780 470.687775,582.445801 
	C467.737640,582.647522 468.126007,584.947449 468.007202,586.907288 
	C467.910065,588.510071 468.057098,590.236084 466.258606,591.112793 
	C463.828217,590.016479 464.467468,587.949097 464.429108,586.268250 
	C464.341919,582.445312 464.550781,578.615662 464.463593,574.792725 
	C464.381592,571.195740 464.956848,568.651672 469.559082,568.837585 
	C475.092438,569.061096 480.120697,571.902405 478.905579,575.451172 
	C477.046143,580.881653 480.397522,585.729736 479.095306,591.275391 
	C475.686066,591.233398 475.902588,588.800659 475.834656,586.178040 
M468.263336,574.006104 
	C468.275055,576.287781 466.909393,579.291138 470.928864,579.569885 
	C472.845886,579.702820 474.522583,578.923096 475.415222,577.130310 
	C476.038544,575.878418 475.995361,574.404602 474.836273,573.515320 
	C472.882782,572.016602 470.725006,571.507507 468.263336,574.006104 
z"/>
<path fill="#000000" opacity="1.000000" stroke="none" 
	d="
M282.699982,568.986023 
	C289.485352,570.929932 293.220154,575.138550 293.171326,580.365356 
	C293.125946,585.222595 289.184692,590.179138 284.495697,591.275818 
	C277.681610,592.869568 271.129822,588.661865 269.942657,581.929382 
	C268.773315,575.298157 274.178772,569.620056 282.699982,568.986023 
M287.300201,574.145325 
	C282.097992,571.114868 277.256134,571.668274 274.540802,575.603699 
	C272.046631,579.218567 272.896271,584.527283 276.573853,587.129150 
	C280.077332,589.607788 283.762207,589.664612 287.090546,586.841675 
	C290.519989,583.932922 290.676056,579.572693 287.300201,574.145325 
z"/>
<path fill="#000000" opacity="1.000000" stroke="none" 
	d="
M535.817505,574.219360 
	C535.378235,568.079895 539.412048,568.769653 542.851868,568.955566 
	C547.546143,569.209412 550.984619,572.109558 550.144348,575.934265 
	C549.002441,581.131714 551.073669,585.890747 550.968445,591.175232 
	C547.991638,591.689819 547.090942,590.057861 547.446838,587.554382 
	C547.939697,584.087952 546.411133,582.642334 543.140381,582.379578 
	C539.431519,582.081726 539.217163,584.445984 539.203552,587.172302 
	C539.196472,588.581116 539.500610,590.272339 536.534485,591.163391 
	C535.086731,585.656616 536.067505,580.108765 535.817505,574.219360 
M543.703857,579.432129 
	C545.719788,578.540222 547.987488,577.610657 547.068665,574.833130 
	C546.257385,572.380859 543.949524,572.139832 541.690247,572.281677 
	C539.382080,572.426514 539.318604,574.103577 539.240173,575.847778 
	C539.120422,578.510742 540.038574,580.026550 543.703857,579.432129 
z"/>
<path fill="#000000" opacity="1.000000" stroke="none" 
	d="
M297.304871,587.886719 
	C297.212128,589.295349 297.009705,590.220825 296.115356,590.863953 
	C293.684174,589.924438 294.158325,587.865479 294.098053,586.211853 
	C293.959595,582.410522 294.169281,578.595276 293.993988,574.796936 
	C293.786163,570.293457 295.674500,568.496277 300.213135,568.864929 
	C305.307678,569.278564 310.016052,572.445374 308.703156,575.809448 
	C306.606415,581.182068 310.349854,585.951782 308.930267,591.204163 
	C306.157318,591.541870 305.587219,589.797913 305.749756,587.607727 
	C306.009918,584.102112 304.718811,582.333801 300.983429,582.362915 
	C297.194305,582.392517 297.319366,584.899292 297.304871,587.886719 
M304.588989,578.193787 
	C306.151245,576.319336 306.061096,574.531067 304.073944,573.098633 
	C302.497711,571.962463 300.402191,571.651794 298.891205,572.620056 
	C296.156677,574.372559 298.047607,576.963135 298.016907,579.162170 
	C300.337036,579.993652 302.213928,579.695312 304.588989,578.193787 
z"/>
<path fill="#000000" opacity="1.000000" stroke="none" 
	d="
M214.970245,571.145142 
	C215.111542,578.005615 215.769714,584.530396 214.517776,592.328796 
	C208.654221,587.483521 206.441666,581.531372 202.026505,576.942505 
	C200.420624,581.636414 202.565735,586.418396 199.903656,590.551819 
	C198.104034,583.824768 198.529907,577.079407 199.211029,569.226074 
	C205.121674,573.230713 206.730103,579.486877 211.902313,584.168823 
	C211.902313,579.892029 211.772720,576.499939 211.962112,573.125732 
	C212.045181,571.645508 211.701569,568.858215 214.970245,571.145142 
z"/>
<path fill="#000000" opacity="1.000000" stroke="none" 
	d="
M403.301208,572.989380 
	C397.218475,578.098267 397.602783,585.348633 403.752441,588.108215 
	C408.042786,590.033325 410.995270,588.541138 412.040009,583.940308 
	C412.184601,583.303650 412.391266,582.668884 412.668610,582.080078 
	C412.789154,581.824158 413.161438,581.686768 413.926636,581.119568 
	C415.755371,584.325806 416.212921,587.235901 413.211182,589.764771 
	C409.532532,592.863831 402.056305,591.837341 398.645050,587.991028 
	C394.451630,583.262817 394.681885,576.400391 399.172546,572.269226 
	C403.608978,568.187988 410.290070,567.881897 414.153809,571.587524 
	C414.792145,572.199768 415.127228,572.916077 414.614319,574.402283 
	C411.088898,573.511719 407.585083,570.721252 403.301208,572.989380 
z"/>
<path fill="#000000" opacity="1.000000" stroke="none" 
	d="
M451.534393,569.348511 
	C455.425995,568.952209 458.985596,568.234009 462.294739,569.994568 
	C461.769379,571.755371 460.763794,571.853699 459.786377,572.118286 
	C457.418304,572.759399 453.512451,570.544189 453.295654,575.297668 
	C453.072876,580.181946 457.105438,578.133911 459.433716,578.865295 
	C460.015961,579.048218 460.544861,579.400696 461.334717,579.792603 
	C460.375519,582.602722 458.089325,581.954224 456.328766,582.091064 
	C453.950836,582.275940 453.206116,583.531799 453.264008,585.710693 
	C453.319824,587.812683 454.398621,588.568420 456.391144,588.737549 
	C458.517212,588.918091 461.005341,588.008606 463.102753,590.635498 
	C459.195435,591.892273 455.671356,591.909180 452.124573,591.521667 
	C451.063232,591.405701 450.088745,590.658691 450.086182,589.613159 
	C450.069672,582.906555 448.501556,576.108398 451.534393,569.348511 
z"/>
<path fill="#000000" opacity="1.000000" stroke="none" 
	d="
M493.454956,585.682617 
	C488.042816,584.421692 484.445770,586.547546 481.596863,591.075806 
	C482.589264,582.952087 485.891144,576.142090 489.979858,568.213745 
	C494.568604,576.117615 497.344604,583.347229 499.905304,591.410461 
	C495.418915,590.981812 496.315338,586.758240 493.454956,585.682617 
M489.079681,577.156921 
	C488.547485,578.676575 487.411438,580.028015 487.737335,581.891724 
	C489.439972,582.980774 491.010803,583.126831 492.463959,581.552124 
	C491.557770,577.750366 491.557770,577.750366 489.079681,577.156921 
z"/>
<path fill="#000000" opacity="1.000000" stroke="none" 
	d="
M228.077881,588.990845 
	C230.434464,590.587097 229.368759,591.313110 227.685928,591.400574 
	C225.042877,591.537964 222.382660,591.417236 219.732529,591.324707 
	C217.249771,591.238159 216.888336,589.448242 216.871719,587.490967 
	C216.835083,583.179810 217.028336,578.855652 216.754807,574.560547 
	C216.474884,570.164612 218.323364,568.409546 222.571960,568.883240 
	C224.754242,569.126587 227.175446,568.225586 229.250763,570.112610 
	C228.182465,572.847595 225.923416,572.055359 224.154419,572.150024 
	C221.969543,572.266846 220.208572,572.505737 220.152542,575.328613 
	C220.099121,578.019592 221.517883,578.722229 223.880356,578.755310 
	C225.257324,578.774536 226.940247,578.335999 227.779053,580.126465 
	C227.309097,582.152344 225.612946,581.959167 224.222290,582.007446 
	C221.740952,582.093628 220.050507,582.727600 220.158615,585.706116 
	C220.276947,588.966492 222.539474,588.744568 224.723328,588.793884 
	C225.717438,588.816345 226.710892,588.866943 228.077881,588.990845 
z"/>
<path fill="#000000" opacity="1.000000" stroke="none" 
	d="
M421.738892,588.479492 
	C424.566376,589.309509 427.455444,587.804993 430.311279,590.684631 
	C425.996460,591.948853 422.188477,591.709900 418.472260,590.932678 
	C416.749878,590.572449 416.891357,588.580627 416.863800,587.109924 
	C416.795441,583.458618 416.810791,579.805725 416.798798,576.153442 
	C416.776276,569.287964 417.248138,568.784546 424.135864,568.916016 
	C425.852142,568.948792 427.838226,568.336121 429.231842,570.396667 
	C428.142914,572.762512 425.931335,572.083313 424.133850,572.148315 
	C421.880066,572.229858 420.258728,572.635986 420.224396,575.418762 
	C420.190338,578.181519 421.707397,578.723938 424.022278,578.753601 
	C425.405670,578.771362 427.069000,578.241943 428.208405,580.191040 
	C427.259949,583.888489 416.110016,579.636719 421.738892,588.479492 
z"/>
<path fill="#000000" opacity="1.000000" stroke="none" 
	d="
M314.846436,583.586731 
	C314.370270,585.991516 314.099030,588.107483 313.758667,590.212341 
	C313.727051,590.407776 313.257019,590.532349 312.990112,590.689087 
	C310.432465,587.304077 310.175903,576.197083 312.597382,569.848022 
	C315.807037,571.276306 313.226959,574.771057 315.129303,576.655945 
	C317.763031,574.925049 318.692627,571.516174 321.532013,570.012817 
	C321.785278,569.878723 322.171051,569.994995 322.706787,569.994995 
	C323.906555,572.114685 322.235840,573.412903 321.096008,574.536865 
	C318.350616,577.244202 318.338379,579.720032 320.608002,582.815430 
	C322.278656,585.093933 324.431824,587.347351 324.612518,590.892944 
	C321.231201,590.884827 321.001160,588.024353 319.518585,586.589233 
	C318.188263,585.301575 318.279358,581.978577 314.846436,583.586731 
z"/>
<path fill="#000000" opacity="1.000000" stroke="none" 
	d="
M369.666138,584.785400 
	C369.666901,580.991943 369.875702,577.650940 369.617950,574.346436 
	C369.294189,570.196045 370.992859,568.449585 375.065460,568.902466 
	C377.269135,569.147583 379.742584,568.160156 381.741974,570.384521 
	C380.372162,572.843201 378.003082,572.071472 376.042847,572.168335 
	C373.592072,572.289307 372.380859,573.290894 372.411346,575.828064 
	C372.442566,578.426331 374.104401,578.636353 376.099274,578.744080 
	C377.634155,578.827026 379.503632,578.161133 380.507111,580.153931 
	C379.766754,582.266235 377.891693,581.911499 376.348145,582.016785 
	C374.099548,582.170044 372.449524,582.742859 372.448364,585.440002 
	C372.447021,588.552490 374.507324,588.682434 376.837067,588.820190 
	C378.652222,588.927429 380.869080,588.005005 382.164276,590.296448 
	C374.306000,593.643799 369.798615,591.798584 369.666138,584.785400 
z"/>
<path fill="#000000" opacity="1.000000" stroke="none" 
	d="
M348.530396,581.315430 
	C341.349304,580.795715 340.703674,585.828613 340.496124,591.162659 
	C337.680328,590.146545 337.875549,588.380981 337.852509,586.846130 
	C337.790131,582.694824 338.008362,578.531433 337.769684,574.392761 
	C337.533173,570.292114 339.147247,568.440063 343.248383,568.912170 
	C345.574463,569.179993 348.226135,568.099243 350.194275,570.363037 
	C348.964172,572.995239 346.690094,572.059204 344.875916,572.141663 
	C342.494476,572.249756 341.110565,572.978394 341.169342,575.637878 
	C341.223724,578.095886 342.624207,578.505981 344.704224,578.785950 
	C346.212158,578.988892 349.146484,577.384338 348.530396,581.315430 
z"/>
<path fill="#000000" opacity="1.000000" stroke="none" 
	d="
M507.011597,585.737671 
	C506.707031,587.857605 507.454681,589.941711 504.886597,590.968567 
	C502.575317,587.886414 503.930847,584.353210 503.704010,581.100769 
	C503.410492,576.892700 505.116760,571.884644 498.300934,570.445679 
	C503.020355,568.335938 507.332611,568.424377 513.266907,570.240295 
	C504.062225,573.459595 507.769928,580.067993 507.011597,585.737671 
z"/>
<path fill="#000000" opacity="1.000000" stroke="none" 
	d="
M356.134094,589.092285 
	C356.289520,582.379822 355.027222,575.963135 356.983673,569.425720 
	C360.110687,570.768921 359.104553,573.031860 359.259399,574.799194 
	C359.418335,576.613037 359.297119,578.451538 359.296356,580.279236 
	C359.293457,587.510315 359.295197,587.501404 366.428314,589.147461 
	C366.838043,589.242004 367.170227,589.672485 367.585632,589.981689 
	C363.546783,592.194702 359.036072,591.976196 356.134094,589.092285 
z"/>
<path fill="#000000" opacity="1.000000" stroke="none" 
	d="
M354.350464,586.683105 
	C354.175232,588.363708 354.621704,589.818604 352.126099,591.054749 
	C351.166779,583.698486 351.543396,576.819946 352.830139,569.870178 
	C354.999115,575.167542 354.018646,580.765381 354.350464,586.683105 
z"/>
<path fill="#000000" opacity="1.000000" stroke="none" 
	d="
M424.828949,233.257828 
	C445.796692,265.233154 434.491241,304.460907 401.934875,320.816589 
	C364.547791,339.599030 320.661469,314.432709 316.548798,272.720947 
	C313.007050,236.799896 342.785004,205.099625 379.972748,207.844193 
	C398.630219,209.221130 413.504150,217.888367 424.828949,233.257828 
M323.329041,251.809891 
	C315.822906,276.926758 326.969421,303.713196 350.493591,315.691833 
	C370.588593,325.924286 390.436035,324.266998 408.417542,310.980225 
	C425.573090,298.303680 432.775543,280.501831 429.718719,259.283386 
	C425.922546,232.932907 405.619171,214.186737 378.239410,212.681320 
	C354.337097,211.367111 331.631195,225.619736 323.329041,251.809891 
z"/>
<path fill="#000000" opacity="1.000000" stroke="none" 
	d="
M351.641479,248.794617 
	C353.111664,253.309021 351.390533,257.332733 351.200256,261.443207 
	C351.109344,263.406616 349.356323,263.696381 347.878632,263.708282 
	C342.740723,263.749634 337.600647,263.685638 332.463379,263.571259 
	C329.796082,263.511841 328.806580,262.359497 329.221558,259.415527 
	C331.514130,243.150772 333.958282,241.889709 351.641479,248.794617 
z"/>
<path fill="#000000" opacity="1.000000" stroke="none" 
	d="
M418.873047,286.704895 
	C417.278564,291.176483 414.653015,291.892578 410.972900,289.847778 
	C410.111176,289.368958 409.136688,289.076141 408.191254,288.767639 
	C398.376831,285.565430 398.436340,285.577545 399.821808,275.296844 
	C400.192963,272.542969 401.302338,271.025360 404.205322,271.042450 
	C409.020325,271.070740 413.836151,271.076294 418.650696,271.015442 
	C421.755310,270.976227 422.972107,272.532593 422.252350,275.395294 
	C421.324738,279.084564 420.126617,282.705841 418.873047,286.704895 
z"/>
<path fill="#000000" opacity="1.000000" stroke="none" 
	d="
M421.491638,263.136719 
	C415.214081,264.680054 409.271820,263.162262 403.331360,263.354614 
	C401.312225,263.420013 400.216156,262.304962 400.007172,260.418884 
	C399.643066,257.133362 399.404694,253.833572 399.136261,250.537918 
	C399.003113,248.903534 400.011993,248.209473 401.410889,247.767441 
	C405.512695,246.471344 409.598663,245.125000 413.691620,243.800705 
	C415.023529,243.369736 416.426788,243.106796 417.134979,244.673279 
	C419.760590,250.481079 423.284210,256.076538 421.491638,263.136719 
z"/>
<path fill="#000000" opacity="1.000000" stroke="none" 
	d="
M329.980560,278.748291 
	C328.391052,271.110901 328.483459,270.996582 335.755157,271.005951 
	C338.919006,271.010040 342.096741,271.197174 345.243378,270.965057 
	C349.560150,270.646637 351.812500,271.938690 351.523895,276.757507 
	C351.334320,279.922577 354.205261,284.186981 351.035645,286.054688 
	C346.722412,288.596313 341.428497,289.542633 336.478424,290.891479 
	C335.038544,291.283813 334.189148,289.623749 333.685852,288.431244 
	C332.395599,285.374084 331.282501,282.242157 329.980560,278.748291 
z"/>
<path fill="#000000" opacity="1.000000" stroke="none" 
	d="
M359.274963,273.344727 
	C362.928741,269.575134 367.576874,269.973572 370.703430,272.128265 
	C373.796234,274.259674 372.850311,279.187256 371.619537,282.354706 
	C370.206451,285.991272 365.820282,284.488464 362.738647,284.879761 
	C360.075928,285.217865 359.819000,282.769257 359.678864,280.698395 
	C359.522217,278.383667 359.348114,276.070160 359.274963,273.344727 
z"/>
<path fill="#000000" opacity="1.000000" stroke="none" 
	d="
M394.646179,310.530151 
	C392.284943,311.434967 391.155609,310.798798 392.161682,308.690765 
	C394.099762,304.630096 395.442352,300.381805 396.782074,296.117462 
	C397.179657,294.851868 397.994049,294.175110 399.393280,294.455017 
	C403.233398,295.223175 407.191742,295.669159 410.846832,298.589050 
	C406.475037,304.078461 401.042999,307.649475 394.646179,310.530151 
z"/>
<path fill="#000000" opacity="1.000000" stroke="none" 
	d="
M352.980774,225.917786 
	C355.240601,224.978271 356.923126,223.334274 359.856354,224.061005 
	C358.126678,228.917847 356.455750,233.681122 354.726410,238.423080 
	C354.192200,239.888000 352.993378,240.404404 351.516022,240.097366 
	C347.973389,239.361053 344.467163,238.504761 340.884460,236.093262 
	C344.129120,231.565308 348.285095,228.704178 352.980774,225.917786 
z"/>
<path fill="#000000" opacity="1.000000" stroke="none" 
	d="
M404.807007,230.115112 
	C406.901001,231.993576 408.710999,233.653320 410.831360,235.597672 
	C407.406799,239.012573 403.277740,239.383591 399.346405,240.137558 
	C398.025635,240.390839 397.204376,239.426788 396.777435,238.242966 
	C395.060852,233.483139 393.367371,228.714966 391.494141,223.470581 
	C397.002655,224.084808 400.611176,227.306229 404.807007,230.115112 
z"/>
<path fill="#000000" opacity="1.000000" stroke="none" 
	d="
M364.947906,249.907257 
	C371.608978,250.566910 374.737946,255.770401 371.652802,261.361755 
	C369.443512,265.365784 365.052216,263.102600 361.642120,263.192261 
	C358.790588,263.267242 358.936371,260.844696 359.149200,258.769257 
	C359.319000,257.113281 359.669617,255.460312 359.670929,253.805801 
	C359.673553,250.417084 361.465790,249.435318 364.947906,249.907257 
z"/>
<path fill="#000000" opacity="1.000000" stroke="none" 
	d="
M388.725342,271.064026 
	C395.207153,273.298676 391.826050,278.035706 391.761200,281.637421 
	C391.691101,285.531036 388.554016,285.144958 385.833710,284.537506 
	C383.852112,284.095001 380.923706,285.226624 380.159302,282.600555 
	C379.193909,279.284119 378.675751,275.370483 380.374481,272.409149 
	C381.904541,269.741821 385.550049,271.289520 388.725342,271.064026 
z"/>
<path fill="#000000" opacity="1.000000" stroke="none" 
	d="
M347.564850,295.530518 
	C352.420013,293.369202 354.944580,294.563019 356.054016,299.591949 
	C356.863525,303.261078 358.541718,306.738586 360.171692,311.237183 
	C351.879761,308.920746 346.123535,304.380737 340.924225,298.809662 
	C342.515106,296.172119 345.085876,296.383270 347.564850,295.530518 
z"/>
<path fill="#000000" opacity="1.000000" stroke="none" 
	d="
M389.661133,249.884979 
	C393.166748,253.314697 392.559418,257.438416 392.048004,261.281952 
	C391.646301,264.300995 388.646271,263.312042 386.662048,263.352753 
	C383.315674,263.421387 379.505859,264.416260 379.595886,258.584106 
	C379.714813,250.880157 379.809357,250.325195 386.222992,249.820862 
	C387.215302,249.742828 388.218475,249.803040 389.661133,249.884979 
z"/>
<path fill="#000000" opacity="1.000000" stroke="none" 
	d="
M363.188782,297.745087 
	C361.520081,293.703674 363.218323,292.246979 366.741669,291.842560 
	C370.144531,291.451996 372.260071,292.385284 372.151581,296.252350 
	C372.014496,301.138367 372.615936,306.061981 371.506317,311.889069 
	C366.618195,307.923553 365.158142,302.895233 363.188782,297.745087 
z"/>
<path fill="#000000" opacity="1.000000" stroke="none" 
	d="
M362.772217,237.886368 
	C364.948425,232.575745 366.158173,227.140747 371.715332,222.295639 
	C372.365906,229.341019 372.977051,235.206772 371.520447,240.822479 
	C370.782410,243.667953 367.176849,242.171585 364.847198,242.172150 
	C362.119324,242.172806 362.262634,240.211166 362.772217,237.886368 
z"/>
<path fill="#000000" opacity="1.000000" stroke="none" 
	d="
M380.042938,310.425018 
	C379.812042,305.289276 379.723816,300.477478 379.711609,295.665527 
	C379.707855,294.186798 379.657013,292.472473 381.554047,292.030487 
	C383.891052,291.485992 386.280975,291.743195 388.281189,293.051697 
	C389.849243,294.077484 389.005768,295.718597 388.594757,297.139771 
	C387.434998,301.150055 385.828400,304.968719 383.492645,308.432892 
	C382.734955,309.556549 382.282776,311.373383 380.042938,310.425018 
z"/>
<path fill="#000000" opacity="1.000000" stroke="none" 
	d="
M379.794373,225.141281 
	C381.878662,222.781540 382.613770,224.900848 383.421722,226.032318 
	C386.059570,229.726471 387.506195,233.972641 388.819763,238.273270 
	C389.563385,240.707993 388.991943,242.449249 386.234406,242.188431 
	C383.890228,241.966675 379.992401,244.445877 379.764832,239.470078 
	C379.552673,234.830185 379.734436,230.172287 379.794373,225.141281 
z"/>
</svg>